<?xml version="1.0" encoding="UTF-8"?>
<!DOCTYPE svg PUBLIC "-//W3C//DTD SVG 1.1//EN" "http://www.w3.org/Graphics/SVG/1.1/DTD/svg11.dtd">
<!-- Creator: CorelDRAW 2019 (64-Bit) -->
<svg xmlns="http://www.w3.org/2000/svg" xml:space="preserve" width="241.3mm" height="279.4mm" version="1.1" style="shape-rendering:geometricPrecision; text-rendering:geometricPrecision; image-rendering:optimizeQuality; fill-rule:evenodd; clip-rule:evenodd"
viewBox="0 0 24130 27940"
 xmlns:xlink="http://www.w3.org/1999/xlink"
 xmlns:xodm="http://www.corel.com/coreldraw/odm/2003">
 <defs>
  <style type="text/css">
   <![CDATA[
    .str2 {stroke:black;stroke-width:20;stroke-miterlimit:22.9256}
    .str1 {stroke:#00CCFF;stroke-width:20;stroke-miterlimit:22.9256}
    .str0 {stroke:#B3B3B3;stroke-width:7.62;stroke-miterlimit:22.9256;stroke-dasharray:76.200000 22.860000}
    .fil1 {fill:none}
    .fil2 {fill:#B3B3B3}
    .fil0 {fill:white}
    .fil4 {fill:black;fill-rule:nonzero}
    .fil3 {fill:#00CCFF;fill-opacity:0.200000}
   ]]>
  </style>
 </defs>
 <g id="Paper">
  <metadata id="CorelCorpID_0Corel-Layer"/>
  <rect class="fil0" x="-10.11" y="-12.29" width="24130" height="27940"/>
  <line class="fil1 str0" x1="-10.11" y1="27927.78" x2="24119.89" y2= "27927.78" />
 </g>
 <g id="Star_x0020_Sprokets">
  <metadata id="CorelCorpID_1Corel-Layer"/>
  <g id="_1975662839856">
   <polygon class="fil2" points="623.01,407.99 652.5,433.87 688.55,418.37 708.59,452.11 747.67,448.5 756.31,486.78 794.59,495.42 790.98,534.5 824.72,554.54 809.22,590.59 835.1,620.08 809.22,649.57 824.72,685.62 790.98,705.66 794.59,744.74 756.31,753.38 747.67,791.66 708.59,788.05 688.55,821.79 652.5,806.29 623.01,832.17 593.52,806.29 557.47,821.79 537.43,788.05 498.35,791.66 489.71,753.38 451.43,744.74 455.04,705.66 421.3,685.62 436.8,649.57 410.92,620.08 436.8,590.59 421.3,554.54 455.04,534.5 451.43,495.42 489.71,486.78 498.35,448.5 537.43,452.11 557.47,418.37 593.52,433.87 "/>
   <polygon class="fil2" points="623.01,1677.99 652.5,1703.87 688.55,1688.37 708.59,1722.11 747.67,1718.5 756.31,1756.78 794.59,1765.42 790.98,1804.5 824.72,1824.54 809.22,1860.59 835.1,1890.08 809.22,1919.57 824.72,1955.62 790.98,1975.66 794.59,2014.74 756.31,2023.38 747.67,2061.66 708.59,2058.05 688.55,2091.79 652.5,2076.29 623.01,2102.17 593.52,2076.29 557.47,2091.79 537.43,2058.05 498.35,2061.66 489.71,2023.38 451.43,2014.74 455.04,1975.66 421.3,1955.62 436.8,1919.57 410.92,1890.08 436.8,1860.59 421.3,1824.54 455.04,1804.5 451.43,1765.42 489.71,1756.78 498.35,1718.5 537.43,1722.11 557.47,1688.37 593.52,1703.87 "/>
   <polygon class="fil2" points="623.01,2947.99 652.5,2973.87 688.55,2958.37 708.59,2992.11 747.67,2988.5 756.31,3026.78 794.59,3035.42 790.98,3074.5 824.72,3094.54 809.22,3130.59 835.1,3160.08 809.22,3189.57 824.72,3225.62 790.98,3245.66 794.59,3284.74 756.31,3293.38 747.67,3331.66 708.59,3328.05 688.55,3361.79 652.5,3346.29 623.01,3372.17 593.52,3346.29 557.47,3361.79 537.43,3328.05 498.35,3331.66 489.71,3293.38 451.43,3284.74 455.04,3245.66 421.3,3225.62 436.8,3189.57 410.92,3160.08 436.8,3130.59 421.3,3094.54 455.04,3074.5 451.43,3035.42 489.71,3026.78 498.35,2988.5 537.43,2992.11 557.47,2958.37 593.52,2973.87 "/>
   <polygon class="fil2" points="623.01,4217.99 652.5,4243.87 688.55,4228.37 708.59,4262.11 747.67,4258.5 756.31,4296.78 794.59,4305.42 790.98,4344.5 824.72,4364.54 809.22,4400.59 835.1,4430.08 809.22,4459.57 824.72,4495.62 790.98,4515.66 794.59,4554.74 756.31,4563.38 747.67,4601.66 708.59,4598.05 688.55,4631.79 652.5,4616.29 623.01,4642.17 593.52,4616.29 557.47,4631.79 537.43,4598.05 498.35,4601.66 489.71,4563.38 451.43,4554.74 455.04,4515.66 421.3,4495.62 436.8,4459.57 410.92,4430.08 436.8,4400.59 421.3,4364.54 455.04,4344.5 451.43,4305.42 489.71,4296.78 498.35,4258.5 537.43,4262.11 557.47,4228.37 593.52,4243.87 "/>
   <polygon class="fil2" points="623.01,5487.99 652.5,5513.87 688.55,5498.37 708.59,5532.11 747.67,5528.5 756.31,5566.78 794.59,5575.42 790.98,5614.5 824.72,5634.54 809.22,5670.59 835.1,5700.08 809.22,5729.57 824.72,5765.62 790.98,5785.66 794.59,5824.74 756.31,5833.38 747.67,5871.66 708.59,5868.05 688.55,5901.79 652.5,5886.29 623.01,5912.17 593.52,5886.29 557.47,5901.79 537.43,5868.05 498.35,5871.66 489.71,5833.38 451.43,5824.74 455.04,5785.66 421.3,5765.62 436.8,5729.57 410.92,5700.08 436.8,5670.59 421.3,5634.54 455.04,5614.5 451.43,5575.42 489.71,5566.78 498.35,5528.5 537.43,5532.11 557.47,5498.37 593.52,5513.87 "/>
   <polygon class="fil2" points="623.01,6757.99 652.5,6783.87 688.55,6768.37 708.59,6802.11 747.67,6798.5 756.31,6836.78 794.59,6845.42 790.98,6884.5 824.72,6904.54 809.22,6940.59 835.1,6970.08 809.22,6999.57 824.72,7035.62 790.98,7055.66 794.59,7094.74 756.31,7103.38 747.67,7141.66 708.59,7138.05 688.55,7171.79 652.5,7156.29 623.01,7182.17 593.52,7156.29 557.47,7171.79 537.43,7138.05 498.35,7141.66 489.71,7103.38 451.43,7094.74 455.04,7055.66 421.3,7035.62 436.8,6999.57 410.92,6970.08 436.8,6940.59 421.3,6904.54 455.04,6884.5 451.43,6845.42 489.71,6836.78 498.35,6798.5 537.43,6802.11 557.47,6768.37 593.52,6783.87 "/>
   <polygon class="fil2" points="623.01,8027.99 652.5,8053.87 688.55,8038.37 708.59,8072.11 747.67,8068.5 756.31,8106.78 794.59,8115.42 790.98,8154.5 824.72,8174.54 809.22,8210.59 835.1,8240.08 809.22,8269.57 824.72,8305.62 790.98,8325.66 794.59,8364.74 756.31,8373.38 747.67,8411.66 708.59,8408.05 688.55,8441.79 652.5,8426.29 623.01,8452.17 593.52,8426.29 557.47,8441.79 537.43,8408.05 498.35,8411.66 489.71,8373.38 451.43,8364.74 455.04,8325.66 421.3,8305.62 436.8,8269.57 410.92,8240.08 436.8,8210.59 421.3,8174.54 455.04,8154.5 451.43,8115.42 489.71,8106.78 498.35,8068.5 537.43,8072.11 557.47,8038.37 593.52,8053.87 "/>
   <polygon class="fil2" points="623.01,9297.99 652.5,9323.87 688.55,9308.37 708.59,9342.11 747.67,9338.5 756.31,9376.78 794.59,9385.42 790.98,9424.5 824.72,9444.54 809.22,9480.59 835.1,9510.08 809.22,9539.57 824.72,9575.62 790.98,9595.66 794.59,9634.74 756.31,9643.38 747.67,9681.66 708.59,9678.05 688.55,9711.79 652.5,9696.29 623.01,9722.17 593.52,9696.29 557.47,9711.79 537.43,9678.05 498.35,9681.66 489.71,9643.38 451.43,9634.74 455.04,9595.66 421.3,9575.62 436.8,9539.57 410.92,9510.08 436.8,9480.59 421.3,9444.54 455.04,9424.5 451.43,9385.42 489.71,9376.78 498.35,9338.5 537.43,9342.11 557.47,9308.37 593.52,9323.87 "/>
   <polygon class="fil2" points="623.01,10567.99 652.5,10593.87 688.55,10578.37 708.59,10612.11 747.67,10608.5 756.31,10646.78 794.59,10655.42 790.98,10694.5 824.72,10714.54 809.22,10750.59 835.1,10780.08 809.22,10809.57 824.72,10845.62 790.98,10865.66 794.59,10904.74 756.31,10913.38 747.67,10951.66 708.59,10948.05 688.55,10981.79 652.5,10966.29 623.01,10992.17 593.52,10966.29 557.47,10981.79 537.43,10948.05 498.35,10951.66 489.71,10913.38 451.43,10904.74 455.04,10865.66 421.3,10845.62 436.8,10809.57 410.92,10780.08 436.8,10750.59 421.3,10714.54 455.04,10694.5 451.43,10655.42 489.71,10646.78 498.35,10608.5 537.43,10612.11 557.47,10578.37 593.52,10593.87 "/>
   <polygon class="fil2" points="623.01,11837.99 652.5,11863.87 688.55,11848.37 708.59,11882.11 747.67,11878.5 756.31,11916.78 794.59,11925.42 790.98,11964.5 824.72,11984.54 809.22,12020.59 835.1,12050.08 809.22,12079.57 824.72,12115.62 790.98,12135.66 794.59,12174.74 756.31,12183.38 747.67,12221.66 708.59,12218.05 688.55,12251.79 652.5,12236.29 623.01,12262.17 593.52,12236.29 557.47,12251.79 537.43,12218.05 498.35,12221.66 489.71,12183.38 451.43,12174.74 455.04,12135.66 421.3,12115.62 436.8,12079.57 410.92,12050.08 436.8,12020.59 421.3,11984.54 455.04,11964.5 451.43,11925.42 489.71,11916.78 498.35,11878.5 537.43,11882.11 557.47,11848.37 593.52,11863.87 "/>
   <polygon class="fil2" points="623.01,13107.99 652.5,13133.87 688.55,13118.37 708.59,13152.11 747.67,13148.5 756.31,13186.78 794.59,13195.42 790.98,13234.5 824.72,13254.54 809.22,13290.59 835.1,13320.08 809.22,13349.57 824.72,13385.62 790.98,13405.66 794.59,13444.74 756.31,13453.38 747.67,13491.66 708.59,13488.05 688.55,13521.79 652.5,13506.29 623.01,13532.17 593.52,13506.29 557.47,13521.79 537.43,13488.05 498.35,13491.66 489.71,13453.38 451.43,13444.74 455.04,13405.66 421.3,13385.62 436.8,13349.57 410.92,13320.08 436.8,13290.59 421.3,13254.54 455.04,13234.5 451.43,13195.42 489.71,13186.78 498.35,13148.5 537.43,13152.11 557.47,13118.37 593.52,13133.87 "/>
   <polygon class="fil2" points="623.01,14377.99 652.5,14403.87 688.55,14388.37 708.59,14422.11 747.67,14418.5 756.31,14456.78 794.59,14465.42 790.98,14504.5 824.72,14524.54 809.22,14560.59 835.1,14590.08 809.22,14619.57 824.72,14655.62 790.98,14675.66 794.59,14714.74 756.31,14723.38 747.67,14761.66 708.59,14758.05 688.55,14791.79 652.5,14776.29 623.01,14802.17 593.52,14776.29 557.47,14791.79 537.43,14758.05 498.35,14761.66 489.71,14723.38 451.43,14714.74 455.04,14675.66 421.3,14655.62 436.8,14619.57 410.92,14590.08 436.8,14560.59 421.3,14524.54 455.04,14504.5 451.43,14465.42 489.71,14456.78 498.35,14418.5 537.43,14422.11 557.47,14388.37 593.52,14403.87 "/>
   <polygon class="fil2" points="623.01,15647.99 652.5,15673.87 688.55,15658.37 708.59,15692.11 747.67,15688.5 756.31,15726.78 794.59,15735.42 790.98,15774.5 824.72,15794.54 809.22,15830.59 835.1,15860.08 809.22,15889.57 824.72,15925.62 790.98,15945.66 794.59,15984.74 756.31,15993.38 747.67,16031.66 708.59,16028.05 688.55,16061.79 652.5,16046.29 623.01,16072.17 593.52,16046.29 557.47,16061.79 537.43,16028.05 498.35,16031.66 489.71,15993.38 451.43,15984.74 455.04,15945.66 421.3,15925.62 436.8,15889.57 410.92,15860.08 436.8,15830.59 421.3,15794.54 455.04,15774.5 451.43,15735.42 489.71,15726.78 498.35,15688.5 537.43,15692.11 557.47,15658.37 593.52,15673.87 "/>
   <polygon class="fil2" points="623.01,16917.99 652.5,16943.87 688.55,16928.37 708.59,16962.11 747.67,16958.5 756.31,16996.78 794.59,17005.42 790.98,17044.5 824.72,17064.54 809.22,17100.59 835.1,17130.08 809.22,17159.57 824.72,17195.62 790.98,17215.66 794.59,17254.74 756.31,17263.38 747.67,17301.66 708.59,17298.05 688.55,17331.79 652.5,17316.29 623.01,17342.17 593.52,17316.29 557.47,17331.79 537.43,17298.05 498.35,17301.66 489.71,17263.38 451.43,17254.74 455.04,17215.66 421.3,17195.62 436.8,17159.57 410.92,17130.08 436.8,17100.59 421.3,17064.54 455.04,17044.5 451.43,17005.42 489.71,16996.78 498.35,16958.5 537.43,16962.11 557.47,16928.37 593.52,16943.87 "/>
   <polygon class="fil2" points="623.01,18187.99 652.5,18213.87 688.55,18198.37 708.59,18232.11 747.67,18228.5 756.31,18266.78 794.59,18275.42 790.98,18314.5 824.72,18334.54 809.22,18370.59 835.1,18400.08 809.22,18429.57 824.72,18465.62 790.98,18485.66 794.59,18524.74 756.31,18533.38 747.67,18571.66 708.59,18568.05 688.55,18601.79 652.5,18586.29 623.01,18612.17 593.52,18586.29 557.47,18601.79 537.43,18568.05 498.35,18571.66 489.71,18533.38 451.43,18524.74 455.04,18485.66 421.3,18465.62 436.8,18429.57 410.92,18400.08 436.8,18370.59 421.3,18334.54 455.04,18314.5 451.43,18275.42 489.71,18266.78 498.35,18228.5 537.43,18232.11 557.47,18198.37 593.52,18213.87 "/>
   <polygon class="fil2" points="623.01,19457.99 652.5,19483.87 688.55,19468.37 708.59,19502.11 747.67,19498.5 756.31,19536.78 794.59,19545.42 790.98,19584.5 824.72,19604.54 809.22,19640.59 835.1,19670.08 809.22,19699.57 824.72,19735.62 790.98,19755.66 794.59,19794.74 756.31,19803.38 747.67,19841.66 708.59,19838.05 688.55,19871.79 652.5,19856.29 623.01,19882.17 593.52,19856.29 557.47,19871.79 537.43,19838.05 498.35,19841.66 489.71,19803.38 451.43,19794.74 455.04,19755.66 421.3,19735.62 436.8,19699.57 410.92,19670.08 436.8,19640.59 421.3,19604.54 455.04,19584.5 451.43,19545.42 489.71,19536.78 498.35,19498.5 537.43,19502.11 557.47,19468.37 593.52,19483.87 "/>
   <polygon class="fil2" points="623.01,20727.99 652.5,20753.87 688.55,20738.37 708.59,20772.11 747.67,20768.5 756.31,20806.78 794.59,20815.42 790.98,20854.5 824.72,20874.54 809.22,20910.59 835.1,20940.08 809.22,20969.57 824.72,21005.62 790.98,21025.66 794.59,21064.74 756.31,21073.38 747.67,21111.66 708.59,21108.05 688.55,21141.79 652.5,21126.29 623.01,21152.17 593.52,21126.29 557.47,21141.79 537.43,21108.05 498.35,21111.66 489.71,21073.38 451.43,21064.74 455.04,21025.66 421.3,21005.62 436.8,20969.57 410.92,20940.08 436.8,20910.59 421.3,20874.54 455.04,20854.5 451.43,20815.42 489.71,20806.78 498.35,20768.5 537.43,20772.11 557.47,20738.37 593.52,20753.87 "/>
   <polygon class="fil2" points="623.01,21997.99 652.5,22023.87 688.55,22008.37 708.59,22042.11 747.67,22038.5 756.31,22076.78 794.59,22085.42 790.98,22124.5 824.72,22144.54 809.22,22180.59 835.1,22210.08 809.22,22239.57 824.72,22275.62 790.98,22295.66 794.59,22334.74 756.31,22343.38 747.67,22381.66 708.59,22378.05 688.55,22411.79 652.5,22396.29 623.01,22422.17 593.52,22396.29 557.47,22411.79 537.43,22378.05 498.35,22381.66 489.71,22343.38 451.43,22334.74 455.04,22295.66 421.3,22275.62 436.8,22239.57 410.92,22210.08 436.8,22180.59 421.3,22144.54 455.04,22124.5 451.43,22085.42 489.71,22076.78 498.35,22038.5 537.43,22042.11 557.47,22008.37 593.52,22023.87 "/>
   <polygon class="fil2" points="623.01,23267.99 652.5,23293.87 688.55,23278.37 708.59,23312.11 747.67,23308.5 756.31,23346.78 794.59,23355.42 790.98,23394.5 824.72,23414.54 809.22,23450.59 835.1,23480.08 809.22,23509.57 824.72,23545.62 790.98,23565.66 794.59,23604.74 756.31,23613.38 747.67,23651.66 708.59,23648.05 688.55,23681.79 652.5,23666.29 623.01,23692.17 593.52,23666.29 557.47,23681.79 537.43,23648.05 498.35,23651.66 489.71,23613.38 451.43,23604.74 455.04,23565.66 421.3,23545.62 436.8,23509.57 410.92,23480.08 436.8,23450.59 421.3,23414.54 455.04,23394.5 451.43,23355.42 489.71,23346.78 498.35,23308.5 537.43,23312.11 557.47,23278.37 593.52,23293.87 "/>
   <polygon class="fil2" points="623.01,24537.99 652.5,24563.87 688.55,24548.37 708.59,24582.11 747.67,24578.5 756.31,24616.78 794.59,24625.42 790.98,24664.5 824.72,24684.54 809.22,24720.59 835.1,24750.08 809.22,24779.57 824.72,24815.62 790.98,24835.66 794.59,24874.74 756.31,24883.38 747.67,24921.66 708.59,24918.05 688.55,24951.79 652.5,24936.29 623.01,24962.17 593.52,24936.29 557.47,24951.79 537.43,24918.05 498.35,24921.66 489.71,24883.38 451.43,24874.74 455.04,24835.66 421.3,24815.62 436.8,24779.57 410.92,24750.08 436.8,24720.59 421.3,24684.54 455.04,24664.5 451.43,24625.42 489.71,24616.78 498.35,24578.5 537.43,24582.11 557.47,24548.37 593.52,24563.87 "/>
   <polygon class="fil2" points="623.01,25807.99 652.5,25833.87 688.55,25818.37 708.59,25852.11 747.67,25848.5 756.31,25886.78 794.59,25895.42 790.98,25934.5 824.72,25954.54 809.22,25990.59 835.1,26020.08 809.22,26049.57 824.72,26085.62 790.98,26105.66 794.59,26144.74 756.31,26153.38 747.67,26191.66 708.59,26188.05 688.55,26221.79 652.5,26206.29 623.01,26232.17 593.52,26206.29 557.47,26221.79 537.43,26188.05 498.35,26191.66 489.71,26153.38 451.43,26144.74 455.04,26105.66 421.3,26085.62 436.8,26049.57 410.92,26020.08 436.8,25990.59 421.3,25954.54 455.04,25934.5 451.43,25895.42 489.71,25886.78 498.35,25848.5 537.43,25852.11 557.47,25818.37 593.52,25833.87 "/>
   <polygon class="fil2" points="623.01,27077.99 652.5,27103.87 688.55,27088.37 708.59,27122.11 747.67,27118.5 756.31,27156.78 794.59,27165.42 790.98,27204.5 824.72,27224.54 809.22,27260.59 835.1,27290.08 809.22,27319.57 824.72,27355.62 790.98,27375.66 794.59,27414.74 756.31,27423.38 747.67,27461.66 708.59,27458.05 688.55,27491.79 652.5,27476.29 623.01,27502.17 593.52,27476.29 557.47,27491.79 537.43,27458.05 498.35,27461.66 489.71,27423.38 451.43,27414.74 455.04,27375.66 421.3,27355.62 436.8,27319.57 410.92,27290.08 436.8,27260.59 421.3,27224.54 455.04,27204.5 451.43,27165.42 489.71,27156.78 498.35,27118.5 537.43,27122.11 557.47,27088.37 593.52,27103.87 "/>
  </g>
  <g id="_1975662872560">
   <polygon class="fil2" points="23483.01,407.99 23512.5,433.87 23548.55,418.37 23568.59,452.11 23607.67,448.5 23616.31,486.78 23654.59,495.42 23650.98,534.5 23684.72,554.54 23669.22,590.59 23695.1,620.08 23669.22,649.57 23684.72,685.62 23650.98,705.66 23654.59,744.74 23616.31,753.38 23607.67,791.66 23568.59,788.05 23548.55,821.79 23512.5,806.29 23483.01,832.17 23453.52,806.29 23417.47,821.79 23397.43,788.05 23358.35,791.66 23349.71,753.38 23311.43,744.74 23315.04,705.66 23281.3,685.62 23296.8,649.57 23270.92,620.08 23296.8,590.59 23281.3,554.54 23315.04,534.5 23311.43,495.42 23349.71,486.78 23358.35,448.5 23397.43,452.11 23417.47,418.37 23453.52,433.87 "/>
   <polygon class="fil2" points="23483.01,1677.99 23512.5,1703.87 23548.55,1688.37 23568.59,1722.11 23607.67,1718.5 23616.31,1756.78 23654.59,1765.42 23650.98,1804.5 23684.72,1824.54 23669.22,1860.59 23695.1,1890.08 23669.22,1919.57 23684.72,1955.62 23650.98,1975.66 23654.59,2014.74 23616.31,2023.38 23607.67,2061.66 23568.59,2058.05 23548.55,2091.79 23512.5,2076.29 23483.01,2102.17 23453.52,2076.29 23417.47,2091.79 23397.43,2058.05 23358.35,2061.66 23349.71,2023.38 23311.43,2014.74 23315.04,1975.66 23281.3,1955.62 23296.8,1919.57 23270.92,1890.08 23296.8,1860.59 23281.3,1824.54 23315.04,1804.5 23311.43,1765.42 23349.71,1756.78 23358.35,1718.5 23397.43,1722.11 23417.47,1688.37 23453.52,1703.87 "/>
   <polygon class="fil2" points="23483.01,2947.99 23512.5,2973.87 23548.55,2958.37 23568.59,2992.11 23607.67,2988.5 23616.31,3026.78 23654.59,3035.42 23650.98,3074.5 23684.72,3094.54 23669.22,3130.59 23695.1,3160.08 23669.22,3189.57 23684.72,3225.62 23650.98,3245.66 23654.59,3284.74 23616.31,3293.38 23607.67,3331.66 23568.59,3328.05 23548.55,3361.79 23512.5,3346.29 23483.01,3372.17 23453.52,3346.29 23417.47,3361.79 23397.43,3328.05 23358.35,3331.66 23349.71,3293.38 23311.43,3284.74 23315.04,3245.66 23281.3,3225.62 23296.8,3189.57 23270.92,3160.08 23296.8,3130.59 23281.3,3094.54 23315.04,3074.5 23311.43,3035.42 23349.71,3026.78 23358.35,2988.5 23397.43,2992.11 23417.47,2958.37 23453.52,2973.87 "/>
   <polygon class="fil2" points="23483.01,4217.99 23512.5,4243.87 23548.55,4228.37 23568.59,4262.11 23607.67,4258.5 23616.31,4296.78 23654.59,4305.42 23650.98,4344.5 23684.72,4364.54 23669.22,4400.59 23695.1,4430.08 23669.22,4459.57 23684.72,4495.62 23650.98,4515.66 23654.59,4554.74 23616.31,4563.38 23607.67,4601.66 23568.59,4598.05 23548.55,4631.79 23512.5,4616.29 23483.01,4642.17 23453.52,4616.29 23417.47,4631.79 23397.43,4598.05 23358.35,4601.66 23349.71,4563.38 23311.43,4554.74 23315.04,4515.66 23281.3,4495.62 23296.8,4459.57 23270.92,4430.08 23296.8,4400.59 23281.3,4364.54 23315.04,4344.5 23311.43,4305.42 23349.71,4296.78 23358.35,4258.5 23397.43,4262.11 23417.47,4228.37 23453.52,4243.87 "/>
   <polygon class="fil2" points="23483.01,5487.99 23512.5,5513.87 23548.55,5498.37 23568.59,5532.11 23607.67,5528.5 23616.31,5566.78 23654.59,5575.42 23650.98,5614.5 23684.72,5634.54 23669.22,5670.59 23695.1,5700.08 23669.22,5729.57 23684.72,5765.62 23650.98,5785.66 23654.59,5824.74 23616.31,5833.38 23607.67,5871.66 23568.59,5868.05 23548.55,5901.79 23512.5,5886.29 23483.01,5912.17 23453.52,5886.29 23417.47,5901.79 23397.43,5868.05 23358.35,5871.66 23349.71,5833.38 23311.43,5824.74 23315.04,5785.66 23281.3,5765.62 23296.8,5729.57 23270.92,5700.08 23296.8,5670.59 23281.3,5634.54 23315.04,5614.5 23311.43,5575.42 23349.71,5566.78 23358.35,5528.5 23397.43,5532.11 23417.47,5498.37 23453.52,5513.87 "/>
   <polygon class="fil2" points="23483.01,6757.99 23512.5,6783.87 23548.55,6768.37 23568.59,6802.11 23607.67,6798.5 23616.31,6836.78 23654.59,6845.42 23650.98,6884.5 23684.72,6904.54 23669.22,6940.59 23695.1,6970.08 23669.22,6999.57 23684.72,7035.62 23650.98,7055.66 23654.59,7094.74 23616.31,7103.38 23607.67,7141.66 23568.59,7138.05 23548.55,7171.79 23512.5,7156.29 23483.01,7182.17 23453.52,7156.29 23417.47,7171.79 23397.43,7138.05 23358.35,7141.66 23349.71,7103.38 23311.43,7094.74 23315.04,7055.66 23281.3,7035.62 23296.8,6999.57 23270.92,6970.08 23296.8,6940.59 23281.3,6904.54 23315.04,6884.5 23311.43,6845.42 23349.71,6836.78 23358.35,6798.5 23397.43,6802.11 23417.47,6768.37 23453.52,6783.87 "/>
   <polygon class="fil2" points="23483.01,8027.99 23512.5,8053.87 23548.55,8038.37 23568.59,8072.11 23607.67,8068.5 23616.31,8106.78 23654.59,8115.42 23650.98,8154.5 23684.72,8174.54 23669.22,8210.59 23695.1,8240.08 23669.22,8269.57 23684.72,8305.62 23650.98,8325.66 23654.59,8364.74 23616.31,8373.38 23607.67,8411.66 23568.59,8408.05 23548.55,8441.79 23512.5,8426.29 23483.01,8452.17 23453.52,8426.29 23417.47,8441.79 23397.43,8408.05 23358.35,8411.66 23349.71,8373.38 23311.43,8364.74 23315.04,8325.66 23281.3,8305.62 23296.8,8269.57 23270.92,8240.08 23296.8,8210.59 23281.3,8174.54 23315.04,8154.5 23311.43,8115.42 23349.71,8106.78 23358.35,8068.5 23397.43,8072.11 23417.47,8038.37 23453.52,8053.87 "/>
   <polygon class="fil2" points="23483.01,9297.99 23512.5,9323.87 23548.55,9308.37 23568.59,9342.11 23607.67,9338.5 23616.31,9376.78 23654.59,9385.42 23650.98,9424.5 23684.72,9444.54 23669.22,9480.59 23695.1,9510.08 23669.22,9539.57 23684.72,9575.62 23650.98,9595.66 23654.59,9634.74 23616.31,9643.38 23607.67,9681.66 23568.59,9678.05 23548.55,9711.79 23512.5,9696.29 23483.01,9722.17 23453.52,9696.29 23417.47,9711.79 23397.43,9678.05 23358.35,9681.66 23349.71,9643.38 23311.43,9634.74 23315.04,9595.66 23281.3,9575.62 23296.8,9539.57 23270.92,9510.08 23296.8,9480.59 23281.3,9444.54 23315.04,9424.5 23311.43,9385.42 23349.71,9376.78 23358.35,9338.5 23397.43,9342.11 23417.47,9308.37 23453.52,9323.87 "/>
   <polygon class="fil2" points="23483.01,10567.99 23512.5,10593.87 23548.55,10578.37 23568.59,10612.11 23607.67,10608.5 23616.31,10646.78 23654.59,10655.42 23650.98,10694.5 23684.72,10714.54 23669.22,10750.59 23695.1,10780.08 23669.22,10809.57 23684.72,10845.62 23650.98,10865.66 23654.59,10904.74 23616.31,10913.38 23607.67,10951.66 23568.59,10948.05 23548.55,10981.79 23512.5,10966.29 23483.01,10992.17 23453.52,10966.29 23417.47,10981.79 23397.43,10948.05 23358.35,10951.66 23349.71,10913.38 23311.43,10904.74 23315.04,10865.66 23281.3,10845.62 23296.8,10809.57 23270.92,10780.08 23296.8,10750.59 23281.3,10714.54 23315.04,10694.5 23311.43,10655.42 23349.71,10646.78 23358.35,10608.5 23397.43,10612.11 23417.47,10578.37 23453.52,10593.87 "/>
   <polygon class="fil2" points="23483.01,11837.99 23512.5,11863.87 23548.55,11848.37 23568.59,11882.11 23607.67,11878.5 23616.31,11916.78 23654.59,11925.42 23650.98,11964.5 23684.72,11984.54 23669.22,12020.59 23695.1,12050.08 23669.22,12079.57 23684.72,12115.62 23650.98,12135.66 23654.59,12174.74 23616.31,12183.38 23607.67,12221.66 23568.59,12218.05 23548.55,12251.79 23512.5,12236.29 23483.01,12262.17 23453.52,12236.29 23417.47,12251.79 23397.43,12218.05 23358.35,12221.66 23349.71,12183.38 23311.43,12174.74 23315.04,12135.66 23281.3,12115.62 23296.8,12079.57 23270.92,12050.08 23296.8,12020.59 23281.3,11984.54 23315.04,11964.5 23311.43,11925.42 23349.71,11916.78 23358.35,11878.5 23397.43,11882.11 23417.47,11848.37 23453.52,11863.87 "/>
   <polygon class="fil2" points="23483.01,13107.99 23512.5,13133.87 23548.55,13118.37 23568.59,13152.11 23607.67,13148.5 23616.31,13186.78 23654.59,13195.42 23650.98,13234.5 23684.72,13254.54 23669.22,13290.59 23695.1,13320.08 23669.22,13349.57 23684.72,13385.62 23650.98,13405.66 23654.59,13444.74 23616.31,13453.38 23607.67,13491.66 23568.59,13488.05 23548.55,13521.79 23512.5,13506.29 23483.01,13532.17 23453.52,13506.29 23417.47,13521.79 23397.43,13488.05 23358.35,13491.66 23349.71,13453.38 23311.43,13444.74 23315.04,13405.66 23281.3,13385.62 23296.8,13349.57 23270.92,13320.08 23296.8,13290.59 23281.3,13254.54 23315.04,13234.5 23311.43,13195.42 23349.71,13186.78 23358.35,13148.5 23397.43,13152.11 23417.47,13118.37 23453.52,13133.87 "/>
   <polygon class="fil2" points="23483.01,14377.99 23512.5,14403.87 23548.55,14388.37 23568.59,14422.11 23607.67,14418.5 23616.31,14456.78 23654.59,14465.42 23650.98,14504.5 23684.72,14524.54 23669.22,14560.59 23695.1,14590.08 23669.22,14619.57 23684.72,14655.62 23650.98,14675.66 23654.59,14714.74 23616.31,14723.38 23607.67,14761.66 23568.59,14758.05 23548.55,14791.79 23512.5,14776.29 23483.01,14802.17 23453.52,14776.29 23417.47,14791.79 23397.43,14758.05 23358.35,14761.66 23349.71,14723.38 23311.43,14714.74 23315.04,14675.66 23281.3,14655.62 23296.8,14619.57 23270.92,14590.08 23296.8,14560.59 23281.3,14524.54 23315.04,14504.5 23311.43,14465.42 23349.71,14456.78 23358.35,14418.5 23397.43,14422.11 23417.47,14388.37 23453.52,14403.87 "/>
   <polygon class="fil2" points="23483.01,15647.99 23512.5,15673.87 23548.55,15658.37 23568.59,15692.11 23607.67,15688.5 23616.31,15726.78 23654.59,15735.42 23650.98,15774.5 23684.72,15794.54 23669.22,15830.59 23695.1,15860.08 23669.22,15889.57 23684.72,15925.62 23650.98,15945.66 23654.59,15984.74 23616.31,15993.38 23607.67,16031.66 23568.59,16028.05 23548.55,16061.79 23512.5,16046.29 23483.01,16072.17 23453.52,16046.29 23417.47,16061.79 23397.43,16028.05 23358.35,16031.66 23349.71,15993.38 23311.43,15984.74 23315.04,15945.66 23281.3,15925.62 23296.8,15889.57 23270.92,15860.08 23296.8,15830.59 23281.3,15794.54 23315.04,15774.5 23311.43,15735.42 23349.71,15726.78 23358.35,15688.5 23397.43,15692.11 23417.47,15658.37 23453.52,15673.87 "/>
   <polygon class="fil2" points="23483.01,16917.99 23512.5,16943.87 23548.55,16928.37 23568.59,16962.11 23607.67,16958.5 23616.31,16996.78 23654.59,17005.42 23650.98,17044.5 23684.72,17064.54 23669.22,17100.59 23695.1,17130.08 23669.22,17159.57 23684.72,17195.62 23650.98,17215.66 23654.59,17254.74 23616.31,17263.38 23607.67,17301.66 23568.59,17298.05 23548.55,17331.79 23512.5,17316.29 23483.01,17342.17 23453.52,17316.29 23417.47,17331.79 23397.43,17298.05 23358.35,17301.66 23349.71,17263.38 23311.43,17254.74 23315.04,17215.66 23281.3,17195.62 23296.8,17159.57 23270.92,17130.08 23296.8,17100.59 23281.3,17064.54 23315.04,17044.5 23311.43,17005.42 23349.71,16996.78 23358.35,16958.5 23397.43,16962.11 23417.47,16928.37 23453.52,16943.87 "/>
   <polygon class="fil2" points="23483.01,18187.99 23512.5,18213.87 23548.55,18198.37 23568.59,18232.11 23607.67,18228.5 23616.31,18266.78 23654.59,18275.42 23650.98,18314.5 23684.72,18334.54 23669.22,18370.59 23695.1,18400.08 23669.22,18429.57 23684.72,18465.62 23650.98,18485.66 23654.59,18524.74 23616.31,18533.38 23607.67,18571.66 23568.59,18568.05 23548.55,18601.79 23512.5,18586.29 23483.01,18612.17 23453.52,18586.29 23417.47,18601.79 23397.43,18568.05 23358.35,18571.66 23349.71,18533.38 23311.43,18524.74 23315.04,18485.66 23281.3,18465.62 23296.8,18429.57 23270.92,18400.08 23296.8,18370.59 23281.3,18334.54 23315.04,18314.5 23311.43,18275.42 23349.71,18266.78 23358.35,18228.5 23397.43,18232.11 23417.47,18198.37 23453.52,18213.87 "/>
   <polygon class="fil2" points="23483.01,19457.99 23512.5,19483.87 23548.55,19468.37 23568.59,19502.11 23607.67,19498.5 23616.31,19536.78 23654.59,19545.42 23650.98,19584.5 23684.72,19604.54 23669.22,19640.59 23695.1,19670.08 23669.22,19699.57 23684.72,19735.62 23650.98,19755.66 23654.59,19794.74 23616.31,19803.38 23607.67,19841.66 23568.59,19838.05 23548.55,19871.79 23512.5,19856.29 23483.01,19882.17 23453.52,19856.29 23417.47,19871.79 23397.43,19838.05 23358.35,19841.66 23349.71,19803.38 23311.43,19794.74 23315.04,19755.66 23281.3,19735.62 23296.8,19699.57 23270.92,19670.08 23296.8,19640.59 23281.3,19604.54 23315.04,19584.5 23311.43,19545.42 23349.71,19536.78 23358.35,19498.5 23397.43,19502.11 23417.47,19468.37 23453.52,19483.87 "/>
   <polygon class="fil2" points="23483.01,20727.99 23512.5,20753.87 23548.55,20738.37 23568.59,20772.11 23607.67,20768.5 23616.31,20806.78 23654.59,20815.42 23650.98,20854.5 23684.72,20874.54 23669.22,20910.59 23695.1,20940.08 23669.22,20969.57 23684.72,21005.62 23650.98,21025.66 23654.59,21064.74 23616.31,21073.38 23607.67,21111.66 23568.59,21108.05 23548.55,21141.79 23512.5,21126.29 23483.01,21152.17 23453.52,21126.29 23417.47,21141.79 23397.43,21108.05 23358.35,21111.66 23349.71,21073.38 23311.43,21064.74 23315.04,21025.66 23281.3,21005.62 23296.8,20969.57 23270.92,20940.08 23296.8,20910.59 23281.3,20874.54 23315.04,20854.5 23311.43,20815.42 23349.71,20806.78 23358.35,20768.5 23397.43,20772.11 23417.47,20738.37 23453.52,20753.87 "/>
   <polygon class="fil2" points="23483.01,21997.99 23512.5,22023.87 23548.55,22008.37 23568.59,22042.11 23607.67,22038.5 23616.31,22076.78 23654.59,22085.42 23650.98,22124.5 23684.72,22144.54 23669.22,22180.59 23695.1,22210.08 23669.22,22239.57 23684.72,22275.62 23650.98,22295.66 23654.59,22334.74 23616.31,22343.38 23607.67,22381.66 23568.59,22378.05 23548.55,22411.79 23512.5,22396.29 23483.01,22422.17 23453.52,22396.29 23417.47,22411.79 23397.43,22378.05 23358.35,22381.66 23349.71,22343.38 23311.43,22334.74 23315.04,22295.66 23281.3,22275.62 23296.8,22239.57 23270.92,22210.08 23296.8,22180.59 23281.3,22144.54 23315.04,22124.5 23311.43,22085.42 23349.71,22076.78 23358.35,22038.5 23397.43,22042.11 23417.47,22008.37 23453.52,22023.87 "/>
   <polygon class="fil2" points="23483.01,23267.99 23512.5,23293.87 23548.55,23278.37 23568.59,23312.11 23607.67,23308.5 23616.31,23346.78 23654.59,23355.42 23650.98,23394.5 23684.72,23414.54 23669.22,23450.59 23695.1,23480.08 23669.22,23509.57 23684.72,23545.62 23650.98,23565.66 23654.59,23604.74 23616.31,23613.38 23607.67,23651.66 23568.59,23648.05 23548.55,23681.79 23512.5,23666.29 23483.01,23692.17 23453.52,23666.29 23417.47,23681.79 23397.43,23648.05 23358.35,23651.66 23349.71,23613.38 23311.43,23604.74 23315.04,23565.66 23281.3,23545.62 23296.8,23509.57 23270.92,23480.08 23296.8,23450.59 23281.3,23414.54 23315.04,23394.5 23311.43,23355.42 23349.71,23346.78 23358.35,23308.5 23397.43,23312.11 23417.47,23278.37 23453.52,23293.87 "/>
   <polygon class="fil2" points="23483.01,24537.99 23512.5,24563.87 23548.55,24548.37 23568.59,24582.11 23607.67,24578.5 23616.31,24616.78 23654.59,24625.42 23650.98,24664.5 23684.72,24684.54 23669.22,24720.59 23695.1,24750.08 23669.22,24779.57 23684.72,24815.62 23650.98,24835.66 23654.59,24874.74 23616.31,24883.38 23607.67,24921.66 23568.59,24918.05 23548.55,24951.79 23512.5,24936.29 23483.01,24962.17 23453.52,24936.29 23417.47,24951.79 23397.43,24918.05 23358.35,24921.66 23349.71,24883.38 23311.43,24874.74 23315.04,24835.66 23281.3,24815.62 23296.8,24779.57 23270.92,24750.08 23296.8,24720.59 23281.3,24684.54 23315.04,24664.5 23311.43,24625.42 23349.71,24616.78 23358.35,24578.5 23397.43,24582.11 23417.47,24548.37 23453.52,24563.87 "/>
   <polygon class="fil2" points="23483.01,25807.99 23512.5,25833.87 23548.55,25818.37 23568.59,25852.11 23607.67,25848.5 23616.31,25886.78 23654.59,25895.42 23650.98,25934.5 23684.72,25954.54 23669.22,25990.59 23695.1,26020.08 23669.22,26049.57 23684.72,26085.62 23650.98,26105.66 23654.59,26144.74 23616.31,26153.38 23607.67,26191.66 23568.59,26188.05 23548.55,26221.79 23512.5,26206.29 23483.01,26232.17 23453.52,26206.29 23417.47,26221.79 23397.43,26188.05 23358.35,26191.66 23349.71,26153.38 23311.43,26144.74 23315.04,26105.66 23281.3,26085.62 23296.8,26049.57 23270.92,26020.08 23296.8,25990.59 23281.3,25954.54 23315.04,25934.5 23311.43,25895.42 23349.71,25886.78 23358.35,25848.5 23397.43,25852.11 23417.47,25818.37 23453.52,25833.87 "/>
   <polygon class="fil2" points="23483.01,27077.99 23512.5,27103.87 23548.55,27088.37 23568.59,27122.11 23607.67,27118.5 23616.31,27156.78 23654.59,27165.42 23650.98,27204.5 23684.72,27224.54 23669.22,27260.59 23695.1,27290.08 23669.22,27319.57 23684.72,27355.62 23650.98,27375.66 23654.59,27414.74 23616.31,27423.38 23607.67,27461.66 23568.59,27458.05 23548.55,27491.79 23512.5,27476.29 23483.01,27502.17 23453.52,27476.29 23417.47,27491.79 23397.43,27458.05 23358.35,27461.66 23349.71,27423.38 23311.43,27414.74 23315.04,27375.66 23281.3,27355.62 23296.8,27319.57 23270.92,27290.08 23296.8,27260.59 23281.3,27224.54 23315.04,27204.5 23311.43,27165.42 23349.71,27156.78 23358.35,27118.5 23397.43,27122.11 23417.47,27088.37 23453.52,27103.87 "/>
  </g>
 </g>
 <g id="Layer_x0020_1">
  <metadata id="CorelCorpID_3Corel-Layer"/>
  <rect class="fil1 str2" x="1259.89" y="5279.44" width="21590" height="21166.75"/>
  <line class="fil1 str2" x1="1259.89" y1="7396.12" x2="22849.89" y2= "7396.12" />
  <line class="fil1 str2" x1="1259.89" y1="6126.12" x2="22849.89" y2= "6126.12" />
  <line class="fil1 str2" x1="1259.89" y1="8666.12" x2="22849.89" y2= "8666.12" />
  <line class="fil1 str2" x1="1259.89" y1="9936.12" x2="22849.89" y2= "9936.12" />
  <line class="fil1 str2" x1="1259.89" y1="11206.12" x2="22849.89" y2= "11206.12" />
  <line class="fil1 str2" x1="1259.89" y1="12476.12" x2="22849.89" y2= "12476.12" />
  <line class="fil1 str2" x1="1259.89" y1="13746.12" x2="22849.89" y2= "13746.12" />
  <line class="fil1 str2" x1="1259.89" y1="15016.12" x2="22849.89" y2= "15016.12" />
  <line class="fil1 str2" x1="1259.89" y1="16286.12" x2="22849.89" y2= "16286.12" />
  <line class="fil1 str2" x1="1259.89" y1="17556.12" x2="22849.89" y2= "17556.12" />
  <line class="fil1 str2" x1="1259.89" y1="18826.12" x2="22849.89" y2= "18826.12" />
  <line class="fil1 str2" x1="1259.89" y1="20096.12" x2="22849.89" y2= "20096.12" />
  <line class="fil1 str2" x1="1259.89" y1="21366.12" x2="22849.89" y2= "21366.12" />
  <line class="fil1 str2" x1="1259.89" y1="22636.12" x2="22849.89" y2= "22636.12" />
  <line class="fil1 str2" x1="1259.89" y1="23906.12" x2="22849.89" y2= "23906.12" />
  <line class="fil1 str2" x1="1259.89" y1="25176.12" x2="22849.89" y2= "25176.12" />
  <rect class="fil1 str2" x="1259.89" y="1046.12" width="21590" height="3810"/>
  <line class="fil1 str2" x1="1259.89" y1="3586.1" x2="22849.89" y2= "3586.1" />
  <line class="fil1 str2" x1="1259.89" y1="2316.1" x2="22849.89" y2= "2316.1" />
  <line class="fil1 str2" x1="5196.89" y1="5279.44" x2="5196.89" y2= "26446.19" />
  <line class="fil1 str2" x1="3418.89" y1="5279.44" x2="3418.89" y2= "26446.19" />
  <line class="fil1 str2" x1="2910.89" y1="6126.12" x2="2910.89" y2= "26446.19" />
  <line class="fil1 str2" x1="3672.89" y1="3586.1" x2="3672.89" y2= "4856.11" />
  <line class="fil1 str2" x1="6212.89" y1="3586.1" x2="6212.89" y2= "4856.11" />
  <path class="fil4" d="M7425.11 1610.23l91.29 0 0 304.8 -58.84 0 0 -206.16c0,-5.93 0.07,-14.25 0.21,-24.91 0.14,-10.72 0.21,-18.91 0.21,-24.69l-57.99 255.76 -62.23 0 -57.57 -255.76c0,5.78 0.07,13.97 0.21,24.69 0.14,10.66 0.21,18.98 0.21,24.91l0 206.16 -58.84 0 0 -304.8 92.28 0 55.74 239.68 55.32 -239.68zm402.65 259.5c25.4,0 45.51,-9.31 60.4,-27.94 14.89,-18.69 22.29,-45.22 22.29,-79.58 0,-34.29 -7.4,-60.75 -22.29,-79.45 -14.89,-18.69 -35,-28.08 -60.4,-28.08 -25.32,0 -45.5,9.32 -60.6,27.94 -15.1,18.7 -22.65,45.23 -22.65,79.59 0,34.36 7.55,60.89 22.65,79.58 15.1,18.63 35.28,27.94 60.6,27.94zm145.77 -107.52c0,54.75 -15.38,96.66 -46.07,125.73 -23.07,23.7 -56.3,35.56 -99.84,35.56 -43.6,0 -76.83,-11.86 -99.9,-35.56 -30.84,-29.07 -46.29,-70.98 -46.29,-125.73 0,-55.81 15.45,-97.72 46.29,-125.73 23.07,-23.71 56.3,-35.56 99.9,-35.56 43.54,0 76.77,11.85 99.84,35.56 30.69,28.01 46.07,69.92 46.07,125.73zm165.39 -151.98l66.32 0 122.06 212.37 0 -212.37 58.84 0 0 304.8 -63.22 0 -125.16 -216.96 0 216.96 -58.84 0 0 -304.8zm488.1 52.5l0 82.12 68.58 0c13.61,0 23.77,-1.69 30.62,-5.01 12.06,-5.78 18.06,-17.21 18.06,-34.36 0,-18.55 -5.86,-30.97 -17.5,-37.39 -6.56,-3.6 -16.37,-5.36 -29.42,-5.36l-70.34 0zm83.6 -52.5c20.82,0.43 36.83,3.04 48.05,7.83 11.22,4.87 20.74,11.93 28.58,21.31 6.42,7.69 11.57,16.23 15.31,25.54 3.74,9.39 5.64,20.04 5.64,32.03 0,14.47 -3.67,28.65 -10.93,42.62 -7.34,13.97 -19.41,23.85 -36.2,29.63 14.04,5.65 23.99,13.69 29.85,24.13 5.85,10.37 8.81,26.32 8.81,47.7l0 20.53c0,13.97 0.57,23.42 1.7,28.36 1.69,7.9 5.64,13.69 11.85,17.43l0 7.69 -70.48 0c-1.98,-6.77 -3.39,-12.21 -4.24,-16.37 -1.69,-8.54 -2.61,-17.36 -2.75,-26.32l-0.42 -28.43c-0.28,-19.47 -3.6,-32.45 -10.09,-38.95 -6.42,-6.49 -18.49,-9.73 -36.2,-9.73l-62.08 0 0 119.8 -62.23 0 0 -304.8 145.83 0zm410.7 259.5c25.4,0 45.51,-9.31 60.4,-27.94 14.89,-18.69 22.29,-45.22 22.29,-79.58 0,-34.29 -7.4,-60.75 -22.29,-79.45 -14.89,-18.69 -35,-28.08 -60.4,-28.08 -25.32,0 -45.5,9.32 -60.6,27.94 -15.1,18.7 -22.65,45.23 -22.65,79.59 0,34.36 7.55,60.89 22.65,79.58 15.1,18.63 35.28,27.94 60.6,27.94zm145.77 -107.52c0,54.75 -15.38,96.66 -46.07,125.73 -23.07,23.7 -56.3,35.56 -99.84,35.56 -43.6,0 -76.83,-11.86 -99.9,-35.56 -30.84,-29.07 -46.29,-70.98 -46.29,-125.73 0,-55.81 15.45,-97.72 46.29,-125.73 23.07,-23.71 56.3,-35.56 99.9,-35.56 43.54,0 76.77,11.85 99.84,35.56 30.69,28.01 46.07,69.92 46.07,125.73zm228.46 -99.48l0 67.73 74.01 0c13.2,0 23.92,-2.54 32.18,-7.62 8.25,-5.08 12.34,-14.04 12.34,-26.95 0,-14.33 -5.43,-23.78 -16.36,-28.37 -9.39,-3.17 -21.38,-4.79 -35.99,-4.79l-66.18 0zm0 118.1l0 81.71 73.73 0c13.2,0 23.43,-1.84 30.76,-5.44 13.34,-6.63 19.97,-19.4 19.97,-38.24 0,-15.94 -6.42,-26.88 -19.33,-32.8 -7.2,-3.39 -17.36,-5.08 -30.34,-5.23l-74.79 0zm86.15 -170.6c37.18,0.57 63.5,11.36 78.95,32.46 9.31,12.98 13.97,28.5 13.97,46.56 0,18.63 -4.73,33.59 -14.11,44.88 -5.29,6.35 -12.98,12.13 -23.28,17.35 15.59,5.72 27.3,14.68 35.27,26.88 7.91,12.28 11.86,27.17 11.86,44.67 0,18.06 -4.52,34.29 -13.55,48.61 -5.78,9.52 -12.98,17.5 -21.59,23.99 -9.74,7.41 -21.17,12.49 -34.36,15.24 -13.26,2.75 -27.59,4.16 -43.04,4.16l-137.23 0 0 -304.8 147.11 0zm409.85 259.5c25.4,0 45.51,-9.31 60.4,-27.94 14.89,-18.69 22.29,-45.22 22.29,-79.58 0,-34.29 -7.4,-60.75 -22.29,-79.45 -14.89,-18.69 -35,-28.08 -60.4,-28.08 -25.32,0 -45.5,9.32 -60.6,27.94 -15.1,18.7 -22.65,45.23 -22.65,79.59 0,34.36 7.55,60.89 22.65,79.58 15.1,18.63 35.28,27.94 60.6,27.94zm145.77 -107.52c0,54.75 -15.38,96.66 -46.07,125.73 -23.07,23.7 -56.3,35.56 -99.84,35.56 -43.6,0 -76.83,-11.86 -99.9,-35.56 -30.84,-29.07 -46.29,-70.98 -46.29,-125.73 0,-55.81 15.45,-97.72 46.29,-125.73 23.07,-23.71 56.3,-35.56 99.9,-35.56 43.54,0 76.77,11.85 99.84,35.56 30.69,28.01 46.07,69.92 46.07,125.73zm388.06 -151.98l0 53.77 -91.44 0 0 251.03 -63.92 0 0 -251.03 -91.44 0 0 -53.77 246.8 0zm439.35 304.8l-74.5 0 97.93 -155.29 -93.28 -149.51 76.06 0 54.4 99.34 55.88 -99.34 73.59 0 -93.27 147.04 99.2 157.76 -77.33 0 -57.79 -103.57 -60.89 103.57zm408.24 0l-63.08 0 0 -304.8 63.08 0 0 304.8zm580.55 -208.07c0,-15.94 -4.03,-27.3 -12.07,-34.07 -8.11,-6.78 -19.4,-10.16 -33.87,-10.16l-57.36 0 0 90.16 57.36 0c14.47,0 25.76,-3.66 33.87,-11 8.04,-7.34 12.07,-18.98 12.07,-34.93zm63.07 -0.21c0,35.98 -8.89,61.46 -26.74,76.34 -17.78,14.89 -43.25,22.3 -76.27,22.3l-63.36 0 0 109.64 -63.07 0 0 -304.8 130.59 0c30.13,0 54.12,7.83 71.97,23.57 17.92,15.73 26.88,40 26.88,72.95zm225.29 -44.02l0 82.12 68.58 0c13.61,0 23.77,-1.69 30.62,-5.01 12.06,-5.78 18.06,-17.21 18.06,-34.36 0,-18.55 -5.86,-30.97 -17.5,-37.39 -6.56,-3.6 -16.37,-5.36 -29.42,-5.36l-70.34 0zm83.6 -52.5c20.82,0.43 36.83,3.04 48.05,7.83 11.22,4.87 20.74,11.93 28.58,21.31 6.42,7.69 11.57,16.23 15.31,25.54 3.74,9.39 5.64,20.04 5.64,32.03 0,14.47 -3.67,28.65 -10.93,42.62 -7.34,13.97 -19.41,23.85 -36.2,29.63 14.04,5.65 23.99,13.69 29.85,24.13 5.85,10.37 8.81,26.32 8.81,47.7l0 20.53c0,13.97 0.57,23.42 1.7,28.36 1.69,7.9 5.64,13.69 11.85,17.43l0 7.69 -70.48 0c-1.98,-6.77 -3.39,-12.21 -4.24,-16.37 -1.69,-8.54 -2.61,-17.36 -2.75,-26.32l-0.42 -28.43c-0.28,-19.47 -3.6,-32.45 -10.09,-38.95 -6.42,-6.49 -18.49,-9.73 -36.2,-9.73l-62.08 0 0 119.8 -62.23 0 0 -304.8 145.83 0zm410.7 259.5c25.4,0 45.51,-9.31 60.4,-27.94 14.89,-18.69 22.29,-45.22 22.29,-79.58 0,-34.29 -7.4,-60.75 -22.29,-79.45 -14.89,-18.69 -35,-28.08 -60.4,-28.08 -25.32,0 -45.5,9.32 -60.6,27.94 -15.1,18.7 -22.65,45.23 -22.65,79.59 0,34.36 7.55,60.89 22.65,79.58 15.1,18.63 35.28,27.94 60.6,27.94zm145.77 -107.52c0,54.75 -15.38,96.66 -46.07,125.73 -23.07,23.7 -56.3,35.56 -99.84,35.56 -43.6,0 -76.83,-11.86 -99.9,-35.56 -30.84,-29.07 -46.29,-70.98 -46.29,-125.73 0,-55.81 15.45,-97.72 46.29,-125.73 23.07,-23.71 56.3,-35.56 99.9,-35.56 43.54,0 76.77,11.85 99.84,35.56 30.69,28.01 46.07,69.92 46.07,125.73zm371.55 -56.73c-4.8,-20.81 -16.65,-35.28 -35.35,-43.53 -10.51,-4.59 -22.15,-6.84 -35,-6.84 -24.55,0 -44.73,9.24 -60.46,27.72 -15.81,18.49 -23.71,46.29 -23.71,83.4 0,37.39 8.54,63.85 25.68,79.37 17.08,15.53 36.48,23.29 58.28,23.29 21.38,0 38.88,-6.14 52.57,-18.35 13.61,-12.27 22.08,-28.29 25.26,-48.12l-70.77 0 0 -50.8 127 0 0 163.41 -41.91 0 -6.56 -38.1c-12.28,14.32 -23.29,24.48 -33.09,30.34 -16.8,10.23 -37.54,15.38 -62.02,15.38 -40.43,0 -73.52,-13.97 -99.27,-41.91 -26.88,-28.01 -40.36,-66.39 -40.36,-115.15 0,-49.24 13.62,-88.68 40.78,-118.39 27.16,-29.7 63.08,-44.59 107.74,-44.59 38.73,0 69.92,9.81 93.41,29.42 23.5,19.62 36.97,44.1 40.43,73.45l-62.65 0zm305.51 -42.75l0 82.12 68.58 0c13.61,0 23.77,-1.69 30.62,-5.01 12.06,-5.78 18.06,-17.21 18.06,-34.36 0,-18.55 -5.86,-30.97 -17.5,-37.39 -6.56,-3.6 -16.37,-5.36 -29.42,-5.36l-70.34 0zm83.6 -52.5c20.82,0.43 36.83,3.04 48.05,7.83 11.22,4.87 20.74,11.93 28.58,21.31 6.42,7.69 11.57,16.23 15.31,25.54 3.74,9.39 5.64,20.04 5.64,32.03 0,14.47 -3.67,28.65 -10.93,42.62 -7.34,13.97 -19.41,23.85 -36.2,29.63 14.04,5.65 23.99,13.69 29.85,24.13 5.85,10.37 8.81,26.32 8.81,47.7l0 20.53c0,13.97 0.57,23.42 1.7,28.36 1.69,7.9 5.64,13.69 11.85,17.43l0 7.69 -70.48 0c-1.98,-6.77 -3.39,-12.21 -4.24,-16.37 -1.69,-8.54 -2.61,-17.36 -2.75,-26.32l-0.42 -28.43c-0.28,-19.47 -3.6,-32.45 -10.09,-38.95 -6.42,-6.49 -18.49,-9.73 -36.2,-9.73l-62.08 0 0 119.8 -62.23 0 0 -304.8 145.83 0zm343.32 189.65l77.89 0 -38.38 -119.94 -39.51 119.94zm4.3 -189.65l71.97 0 107.38 304.8 -69 0 -20.04 -62.65 -111.9 0 -20.67 62.65 -66.32 0 108.58 -304.8zm522.96 0l91.29 0 0 304.8 -58.84 0 0 -206.16c0,-5.93 0.07,-14.25 0.21,-24.91 0.14,-10.72 0.21,-18.91 0.21,-24.69l-57.99 255.76 -62.23 0 -57.57 -255.76c0,5.78 0.07,13.97 0.21,24.69 0.14,10.66 0.21,18.98 0.21,24.91l0 206.16 -58.84 0 0 -304.8 92.28 0 55.74 239.68 55.32 -239.68zm548.71 210.4c1.98,13.9 5.86,24.27 11.57,31.18 10.59,12.49 28.65,18.77 54.26,18.77 15.31,0 27.8,-1.62 37.32,-4.94 18.14,-6.35 27.24,-18.13 27.24,-35.35 0,-10.09 -4.45,-17.85 -13.41,-23.35 -8.96,-5.36 -23.07,-10.16 -42.33,-14.32l-32.88 -7.2c-32.38,-7.2 -54.54,-15.03 -66.6,-23.42 -20.39,-14.04 -30.62,-36.06 -30.62,-65.97 0,-27.31 10.02,-49.96 30.05,-68.02 20.04,-18.06 49.53,-27.09 88.41,-27.09 32.38,0 60.11,8.47 82.97,25.47 22.93,17 34.93,41.7 36.05,74.01l-61.38 0c-1.13,-18.27 -9.31,-31.25 -24.48,-38.94 -10.09,-5.08 -22.72,-7.62 -37.75,-7.62 -16.72,0 -30.05,3.31 -40.07,9.87 -9.95,6.64 -14.96,15.88 -14.96,27.66 0,10.94 4.94,19.05 14.75,24.41 6.35,3.53 19.82,7.76 40.42,12.63l53.34 12.63c23.36,5.5 40.92,12.91 52.64,22.16 18.13,14.39 27.23,35.13 27.23,62.3 0,27.94 -10.72,51.08 -32.24,69.49 -21.52,18.42 -51.86,27.66 -91.09,27.66 -40.07,0 -71.61,-9.1 -94.54,-27.23 -22.93,-18.14 -34.43,-43.04 -34.43,-74.79l60.53 0zm354.26 94.4l0 -304.8 63.08 0 0 116.42 118.95 0 0 -116.42 63.08 0 0 304.8 -63.08 0 0 -135.89 -118.95 0 0 135.89 -63.08 0zm648.9 -251.03l-161.22 0 0 65.19 148.02 0 0 52.91 -148.02 0 0 78.32 168.7 0 0 54.61 -230.93 0 0 -304.8 223.45 0 0 53.77zm399.98 0l-161.22 0 0 65.19 148.02 0 0 52.91 -148.02 0 0 78.32 168.7 0 0 54.61 -230.93 0 0 -304.8 223.45 0 0 53.77zm396.24 -53.77l0 53.77 -91.44 0 0 251.03 -63.92 0 0 -251.03 -91.44 0 0 -53.77 246.8 0z"/>
  <path class="fil4" d="M1424.39 2500.32l67.81 0c13.37,0 24.23,3.81 32.56,11.43 8.29,7.59 12.45,18.31 12.45,32.07 0,11.85 -3.7,22.15 -11.15,30.94 -7.4,8.78 -18.69,13.19 -33.79,13.19l-47.13 0 0 64.35 -20.75 0 0 -151.98zm91.87 43.57c0,-11.18 -4.1,-18.8 -12.24,-22.79 -4.49,-2.15 -10.66,-3.21 -18.49,-3.21l-40.39 0 0 52.71 40.39 0c9.14,0 16.54,-1.98 22.22,-5.9 5.68,-3.95 8.51,-10.9 8.51,-20.81z"/>
  <path id="1" class="fil4" d="M1632.88 2569.96c9.32,0 16.69,-1.94 22.12,-5.82 5.44,-3.85 8.15,-10.83 8.15,-20.96 0,-10.83 -3.81,-18.23 -11.39,-22.19 -4.06,-2.08 -9.49,-3.1 -16.27,-3.1l-48.54 0 0 52.07 45.93 0zm-66.67 -69.64l68.86 0c11.36,0 20.71,1.69 28.08,5.08 13.97,6.46 20.96,18.45 20.96,35.88 0,9.1 -1.87,16.54 -5.65,22.37 -3.77,5.78 -9.06,10.44 -15.84,13.97 5.96,2.39 10.45,5.57 13.48,9.49 3.03,3.91 4.69,10.3 5.04,19.15l0.64 20.43c0.21,5.78 0.7,10.09 1.45,12.91 1.23,4.83 3.42,7.94 6.59,9.31l0 3.39 -25.22 0c-0.67,-1.31 -1.24,-3 -1.66,-5.08 -0.42,-2.05 -0.78,-6.07 -1.06,-11.99l-1.06 -25.37c-0.46,-9.91 -4.02,-16.58 -10.69,-19.97 -3.81,-1.87 -9.77,-2.78 -17.88,-2.78l-45.3 0 0 65.19 -20.74 0 0 -151.98z"/>
  <path id="2" class="fil4" d="M1782.04 2496.3c26.81,0 46.64,8.61 59.51,25.86 10.06,13.44 15.1,30.62 15.1,51.58 0,22.68 -5.75,41.52 -17.25,56.55 -13.51,17.64 -32.74,26.46 -57.75,26.46 -23.35,0 -41.73,-7.73 -55.07,-23.15 -11.92,-14.88 -17.88,-33.72 -17.88,-56.44 0,-20.57 5.11,-38.14 15.31,-52.74 13.05,-18.74 32.42,-28.12 58.03,-28.12zm2.19 142.24c18.13,0 31.22,-6.53 39.33,-19.54 8.08,-13.02 12.14,-27.98 12.14,-44.91 0,-17.89 -4.66,-32.28 -14.01,-43.22 -9.35,-10.9 -22.08,-16.37 -38.28,-16.37 -15.73,0 -28.54,5.4 -38.45,16.23 -9.91,10.8 -14.89,26.74 -14.89,47.8 0,16.87 4.27,31.08 12.77,42.65 8.51,11.58 22.3,17.36 41.39,17.36z"/>
  <path id="3" class="fil4" d="M1945.69 2496.3c14.08,0 26.21,2.75 36.44,8.25 14.89,7.87 23.99,21.7 27.31,41.49l-20.32 0c-2.44,-11.01 -7.48,-18.98 -15.1,-24.02 -7.62,-5.01 -17.25,-7.52 -28.89,-7.52 -13.76,0 -25.37,5.26 -34.79,15.81 -9.42,10.55 -14.14,26.28 -14.14,47.13 0,18.06 3.88,32.77 11.67,44.1 7.76,11.32 20.46,17 38.07,17 13.44,0 24.59,-3.95 33.44,-11.89 8.82,-7.93 13.34,-20.78 13.55,-38.49l-47.63 0 0 -17.14 66.68 0 0 81.28 -13.2 0 -4.93 -19.65c-6.85,7.69 -12.92,13.02 -18.21,15.98 -8.89,5.12 -20.18,7.69 -33.86,7.69 -17.71,0 -32.92,-5.82 -45.69,-17.5 -13.9,-14.64 -20.85,-34.71 -20.85,-60.22 0,-25.47 6.77,-45.72 20.36,-60.78 12.91,-14.36 29.59,-21.52 50.09,-21.52z"/>
  <path id="4" class="fil4" d="M2115.02 2569.96c9.32,0 16.69,-1.94 22.12,-5.82 5.44,-3.85 8.15,-10.83 8.15,-20.96 0,-10.83 -3.81,-18.23 -11.39,-22.19 -4.06,-2.08 -9.49,-3.1 -16.27,-3.1l-48.54 0 0 52.07 45.93 0zm-66.67 -69.64l68.86 0c11.36,0 20.71,1.69 28.08,5.08 13.97,6.46 20.96,18.45 20.96,35.88 0,9.1 -1.87,16.54 -5.65,22.37 -3.77,5.78 -9.06,10.44 -15.84,13.97 5.96,2.39 10.45,5.57 13.48,9.49 3.03,3.91 4.69,10.3 5.04,19.15l0.64 20.43c0.21,5.78 0.7,10.09 1.45,12.91 1.23,4.83 3.42,7.94 6.59,9.31l0 3.39 -25.22 0c-0.67,-1.31 -1.24,-3 -1.66,-5.08 -0.42,-2.05 -0.78,-6.07 -1.06,-11.99l-1.06 -25.37c-0.46,-9.91 -4.02,-16.58 -10.69,-19.97 -3.81,-1.87 -9.77,-2.78 -17.88,-2.78l-45.3 0 0 65.19 -20.74 0 0 -151.98z"/>
  <path id="5" class="fil4" d="M2277.13 2589.86l-23.32 -67.03 -24.24 67.03 47.56 0zm-34.05 -89.54l23.22 0 55.03 151.98 -22.51 0 -15.91 -45.72 -59.41 0 -16.54 45.72 -21.1 0 57.22 -151.98z"/>
  <path id="6" class="fil4" d="M2339.42 2500.32l29.5 0 43.64 128.48 43.39 -128.48 29.31 0 0 151.98 -19.68 0 0 -89.71c0,-3.11 0.1,-8.22 0.32,-15.42 0.21,-7.16 0.31,-14.85 0.31,-23.04l-43.6 128.17 -20.39 0 -43.75 -128.17 0 4.66c0,3.7 0.11,9.38 0.32,17 0.21,7.62 0.32,13.23 0.32,16.8l0 89.71 -19.69 0 0 -151.98z"/>
  <path class="fil4" d="M1424.39 3738.62l67.81 0c13.37,0 24.23,3.81 32.56,11.43 8.29,7.59 12.45,18.31 12.45,32.07 0,11.85 -3.7,22.15 -11.15,30.94 -7.4,8.78 -18.69,13.19 -33.79,13.19l-47.13 0 0 64.35 -20.75 0 0 -151.98zm91.87 43.57c0,-11.18 -4.1,-18.8 -12.24,-22.79 -4.49,-2.15 -10.66,-3.21 -18.49,-3.21l-40.39 0 0 52.71 40.39 0c9.14,0 16.54,-1.98 22.22,-5.9 5.68,-3.95 8.51,-10.9 8.51,-20.81z"/>
  <path id="1" class="fil4" d="M1626.54 3828.16l-23.32 -67.03 -24.24 67.03 47.56 0zm-34.05 -89.54l23.22 0 55.03 151.98 -22.51 0 -15.91 -45.72 -59.41 0 -16.54 45.72 -21.1 0 57.22 -151.98z"/>
  <path id="2" class="fil4" d="M1753.78 3734.6c14.08,0 26.21,2.75 36.44,8.25 14.89,7.87 23.99,21.7 27.31,41.49l-20.32 0c-2.44,-11.01 -7.48,-18.98 -15.1,-24.02 -7.62,-5.01 -17.25,-7.52 -28.89,-7.52 -13.76,0 -25.37,5.26 -34.79,15.81 -9.42,10.55 -14.14,26.28 -14.14,47.13 0,18.06 3.88,32.77 11.67,44.1 7.76,11.32 20.46,17 38.07,17 13.44,0 24.59,-3.95 33.44,-11.89 8.82,-7.93 13.34,-20.78 13.55,-38.49l-47.63 0 0 -17.14 66.68 0 0 81.28 -13.2 0 -4.93 -19.65c-6.85,7.69 -12.92,13.02 -18.21,15.98 -8.89,5.12 -20.18,7.69 -33.86,7.69 -17.71,0 -32.92,-5.82 -45.69,-17.5 -13.9,-14.64 -20.85,-34.71 -20.85,-60.22 0,-25.47 6.77,-45.72 20.36,-60.78 12.91,-14.36 29.59,-21.52 50.09,-21.52z"/>
  <polygon id="3" class="fil4" points="1855.8,3738.62 1966.08,3738.62 1966.08,3757.25 1875.91,3757.25 1875.91,3803.39 1959.31,3803.39 1959.31,3820.96 1875.91,3820.96 1875.91,3872.61 1967.56,3872.61 1967.56,3890.6 1855.8,3890.6 "/>
  <path class="fil4" d="M3925.72 3873.03c6.81,0 12.42,-0.74 16.79,-2.19 7.8,-2.68 14.19,-7.86 19.2,-15.52 3.95,-6.14 6.8,-14 8.57,-23.63 1.02,-5.72 1.52,-11.05 1.52,-15.95 0,-18.84 -3.67,-33.48 -10.98,-43.92 -7.3,-10.41 -19.05,-15.63 -35.27,-15.63l-35.67 0 0 116.84 35.84 0zm-56.58 -134.41l60.57 0c20.57,0 36.55,7.41 47.87,22.23 10.13,13.4 15.17,30.55 15.17,51.43 0,16.12 -3,30.73 -8.96,43.75 -10.51,23.03 -28.61,34.57 -54.26,34.57l-60.39 0 0 -151.98z"/>
  <path id="1" class="fil4" d="M4099.4 3828.16l-23.32 -67.03 -24.24 67.03 47.56 0zm-34.05 -89.54l23.22 0 55.03 151.98 -22.51 0 -15.91 -45.72 -59.41 0 -16.54 45.72 -21.1 0 57.22 -151.98z"/>
  <polygon id="2" class="fil4" points="4256.81,3738.62 4256.81,3756.61 4205.58,3756.61 4205.58,3890.6 4184.84,3890.6 4184.84,3756.61 4133.62,3756.61 4133.62,3738.62 "/>
  <polygon id="3" class="fil4" points="4277.73,3738.62 4388.01,3738.62 4388.01,3757.25 4297.84,3757.25 4297.84,3803.39 4381.24,3803.39 4381.24,3820.96 4297.84,3820.96 4297.84,3872.61 4389.49,3872.61 4389.49,3890.6 4277.73,3890.6 "/>
  <path class="fil4" d="M6437.08 3736.08l67.81 0c13.37,0 24.23,3.81 32.56,11.43 8.29,7.59 12.45,18.31 12.45,32.07 0,11.85 -3.7,22.15 -11.15,30.94 -7.4,8.78 -18.69,13.19 -33.79,13.19l-47.13 0 0 64.35 -20.75 0 0 -151.98zm91.87 43.57c0,-11.18 -4.1,-18.8 -12.24,-22.79 -4.49,-2.15 -10.66,-3.21 -18.49,-3.21l-40.39 0 0 52.71 40.39 0c9.14,0 16.54,-1.98 22.22,-5.9 5.68,-3.95 8.51,-10.9 8.51,-20.81z"/>
  <path id="1" class="fil4" d="M6645.57 3805.72c9.32,0 16.69,-1.94 22.12,-5.82 5.44,-3.85 8.15,-10.83 8.15,-20.96 0,-10.83 -3.81,-18.23 -11.39,-22.19 -4.06,-2.08 -9.49,-3.1 -16.27,-3.1l-48.54 0 0 52.07 45.93 0zm-66.67 -69.64l68.86 0c11.36,0 20.71,1.69 28.08,5.08 13.97,6.46 20.96,18.45 20.96,35.88 0,9.1 -1.87,16.54 -5.65,22.37 -3.77,5.78 -9.06,10.44 -15.84,13.97 5.96,2.39 10.45,5.57 13.48,9.49 3.03,3.91 4.69,10.3 5.04,19.15l0.64 20.43c0.21,5.78 0.7,10.09 1.45,12.91 1.23,4.83 3.42,7.94 6.59,9.31l0 3.39 -25.22 0c-0.67,-1.31 -1.24,-3 -1.66,-5.08 -0.42,-2.05 -0.78,-6.07 -1.06,-11.99l-1.06 -25.37c-0.46,-9.91 -4.02,-16.58 -10.69,-19.97 -3.81,-1.87 -9.77,-2.78 -17.88,-2.78l-45.3 0 0 65.19 -20.74 0 0 -151.98z"/>
  <path id="2" class="fil4" d="M6794.73 3732.06c26.81,0 46.64,8.61 59.51,25.86 10.06,13.44 15.1,30.62 15.1,51.58 0,22.68 -5.75,41.52 -17.25,56.55 -13.51,17.64 -32.74,26.46 -57.75,26.46 -23.35,0 -41.73,-7.73 -55.07,-23.15 -11.92,-14.88 -17.88,-33.72 -17.88,-56.44 0,-20.57 5.11,-38.14 15.31,-52.74 13.05,-18.74 32.42,-28.12 58.03,-28.12zm2.19 142.24c18.13,0 31.22,-6.53 39.33,-19.54 8.08,-13.02 12.14,-27.98 12.14,-44.91 0,-17.89 -4.66,-32.28 -14.01,-43.22 -9.35,-10.9 -22.08,-16.37 -38.28,-16.37 -15.73,0 -28.54,5.4 -38.45,16.23 -9.91,10.8 -14.89,26.74 -14.89,47.8 0,16.87 4.27,31.08 12.77,42.65 8.51,11.58 22.3,17.36 41.39,17.36z"/>
  <path id="3" class="fil4" d="M6958.38 3732.06c14.08,0 26.21,2.75 36.44,8.25 14.89,7.87 23.99,21.7 27.31,41.49l-20.32 0c-2.44,-11.01 -7.48,-18.98 -15.1,-24.02 -7.62,-5.01 -17.25,-7.52 -28.89,-7.52 -13.76,0 -25.37,5.26 -34.79,15.81 -9.42,10.55 -14.14,26.28 -14.14,47.13 0,18.06 3.88,32.77 11.67,44.1 7.76,11.32 20.46,17 38.07,17 13.44,0 24.59,-3.95 33.44,-11.89 8.82,-7.93 13.34,-20.78 13.55,-38.49l-47.63 0 0 -17.14 66.68 0 0 81.28 -13.2 0 -4.93 -19.65c-6.85,7.69 -12.92,13.02 -18.21,15.98 -8.89,5.12 -20.18,7.69 -33.86,7.69 -17.71,0 -32.92,-5.82 -45.69,-17.5 -13.9,-14.64 -20.85,-34.71 -20.85,-60.22 0,-25.47 6.77,-45.72 20.36,-60.78 12.91,-14.36 29.59,-21.52 50.09,-21.52z"/>
  <path id="4" class="fil4" d="M7127.71 3805.72c9.32,0 16.69,-1.94 22.12,-5.82 5.44,-3.85 8.15,-10.83 8.15,-20.96 0,-10.83 -3.81,-18.23 -11.39,-22.19 -4.06,-2.08 -9.49,-3.1 -16.27,-3.1l-48.54 0 0 52.07 45.93 0zm-66.67 -69.64l68.86 0c11.36,0 20.71,1.69 28.08,5.08 13.97,6.46 20.96,18.45 20.96,35.88 0,9.1 -1.87,16.54 -5.65,22.37 -3.77,5.78 -9.06,10.44 -15.84,13.97 5.96,2.39 10.45,5.57 13.48,9.49 3.03,3.91 4.69,10.3 5.04,19.15l0.64 20.43c0.21,5.78 0.7,10.09 1.45,12.91 1.23,4.83 3.42,7.94 6.59,9.31l0 3.39 -25.22 0c-0.67,-1.31 -1.24,-3 -1.66,-5.08 -0.42,-2.05 -0.78,-6.07 -1.06,-11.99l-1.06 -25.37c-0.46,-9.91 -4.02,-16.58 -10.69,-19.97 -3.81,-1.87 -9.77,-2.78 -17.88,-2.78l-45.3 0 0 65.19 -20.74 0 0 -151.98z"/>
  <path id="5" class="fil4" d="M7289.82 3825.62l-23.32 -67.03 -24.24 67.03 47.56 0zm-34.05 -89.54l23.22 0 55.03 151.98 -22.51 0 -15.91 -45.72 -59.41 0 -16.54 45.72 -21.1 0 57.22 -151.98z"/>
  <path id="6" class="fil4" d="M7352.11 3736.08l29.5 0 43.64 128.48 43.39 -128.48 29.31 0 0 151.98 -19.68 0 0 -89.71c0,-3.11 0.1,-8.22 0.32,-15.42 0.21,-7.16 0.31,-14.85 0.31,-23.04l-43.6 128.17 -20.39 0 -43.75 -128.17 0 4.66c0,3.7 0.11,9.38 0.32,17 0.21,7.62 0.32,13.23 0.32,16.8l0 89.71 -19.69 0 0 -151.98z"/>
  <path id="7" class="fil4" d="M7528.43 3736.08l29.5 0 43.64 128.48 43.39 -128.48 29.31 0 0 151.98 -19.68 0 0 -89.71c0,-3.11 0.1,-8.22 0.32,-15.42 0.21,-7.16 0.31,-14.85 0.31,-23.04l-43.6 128.17 -20.39 0 -43.75 -128.17 0 4.66c0,3.7 0.11,9.38 0.32,17 0.21,7.62 0.32,13.23 0.32,16.8l0 89.71 -19.69 0 0 -151.98z"/>
  <polygon id="8" class="fil4" points="7707.08,3736.08 7817.36,3736.08 7817.36,3754.71 7727.19,3754.71 7727.19,3800.85 7810.59,3800.85 7810.59,3818.42 7727.19,3818.42 7727.19,3870.07 7818.84,3870.07 7818.84,3888.06 7707.08,3888.06 "/>
  <path id="9" class="fil4" d="M7915.57 3805.72c9.32,0 16.69,-1.94 22.12,-5.82 5.44,-3.85 8.15,-10.83 8.15,-20.96 0,-10.83 -3.81,-18.23 -11.39,-22.19 -4.06,-2.08 -9.49,-3.1 -16.27,-3.1l-48.54 0 0 52.07 45.93 0zm-66.67 -69.64l68.86 0c11.36,0 20.71,1.69 28.08,5.08 13.97,6.46 20.96,18.45 20.96,35.88 0,9.1 -1.87,16.54 -5.65,22.37 -3.77,5.78 -9.06,10.44 -15.84,13.97 5.96,2.39 10.45,5.57 13.48,9.49 3.03,3.91 4.69,10.3 5.04,19.15l0.64 20.43c0.21,5.78 0.7,10.09 1.45,12.91 1.23,4.83 3.42,7.94 6.59,9.31l0 3.39 -25.22 0c-0.67,-1.31 -1.24,-3 -1.66,-5.08 -0.42,-2.05 -0.78,-6.07 -1.06,-11.99l-1.06 -25.37c-0.46,-9.91 -4.02,-16.58 -10.69,-19.97 -3.81,-1.87 -9.77,-2.78 -17.88,-2.78l-45.3 0 0 65.19 -20.74 0 0 -151.98z"/>
  <polygon class="fil4" points="12965.83,5618.54 13002.24,5618.54 13115.69,5802.69 13115.69,5618.54 13145.22,5618.54 13145.22,5846.51 13110.5,5846.51 12995.36,5662.04 12995.36,5846.51 12965.83,5846.51 "/>
  <path id="1" class="fil4" d="M13381.6 5612.51c40.21,0 69.95,12.91 89.27,38.79 15.08,20.16 22.65,45.93 22.65,77.36 0,34.03 -8.63,62.29 -25.88,84.83 -20.27,26.46 -49.11,39.69 -86.63,39.69 -35.03,0 -62.6,-11.59 -82.6,-34.72 -17.88,-22.33 -26.83,-50.58 -26.83,-84.66 0,-30.85 7.68,-57.21 22.97,-79.11 19.58,-28.1 48.63,-42.18 87.05,-42.18zm3.28 213.36c27.2,0 46.83,-9.79 59,-29.31 12.12,-19.53 18.2,-41.97 18.2,-67.37 0,-26.83 -6.98,-48.42 -21.01,-64.82 -14.02,-16.35 -33.12,-24.55 -57.41,-24.55 -23.6,0 -42.81,8.09 -57.68,24.34 -14.87,16.19 -22.33,40.11 -22.33,71.7 0,25.3 6.4,46.62 19.16,63.98 12.75,17.35 33.44,26.03 62.07,26.03z"/>
  <polygon id="2" class="fil4" points="13778.37,5618.54 13778.37,5645.53 13701.53,5645.53 13701.53,5846.51 13670.42,5846.51 13670.42,5645.53 13593.58,5645.53 13593.58,5618.54 "/>
  <polygon id="3" class="fil4" points="13892.4,5618.54 14057.82,5618.54 14057.82,5646.48 13922.56,5646.48 13922.56,5715.7 14047.66,5715.7 14047.66,5742.05 13922.56,5742.05 13922.56,5819.52 14060.04,5819.52 14060.04,5846.51 13892.4,5846.51 "/>
  <path id="4" class="fil4" d="M14209.52 5773.17c0.69,12.91 3.65,23.33 8.84,31.38 9.84,15.08 27.25,22.59 52.18,22.59 11.16,0 21.32,-1.64 30.48,-4.97 17.72,-6.35 26.61,-17.83 26.61,-34.34 0,-12.39 -3.75,-21.22 -11.27,-26.46 -7.62,-5.19 -19.52,-9.69 -35.72,-13.5l-29.9 -6.98c-19.52,-4.55 -33.33,-9.58 -41.48,-15.08 -14.02,-9.48 -21.01,-23.71 -21.01,-42.6 0,-20.48 6.88,-37.25 20.69,-50.38 13.76,-13.12 33.29,-19.68 58.58,-19.68 23.23,0 42.97,5.77 59.21,17.3 16.25,11.59 24.4,30 24.4,55.4l-28.89 0c-1.49,-12.22 -4.66,-21.64 -9.53,-28.15 -9.05,-11.9 -24.39,-17.88 -46.09,-17.88 -17.46,0 -30.06,3.81 -37.68,11.48 -7.67,7.62 -11.48,16.51 -11.48,26.62 0,11.16 4.5,19.31 13.55,24.5 5.92,3.28 19.31,7.41 40.16,12.38l30.96 7.3c14.97,3.5 26.51,8.31 34.6,14.4 14.03,10.63 21.07,26.08 21.07,46.35 0,25.19 -8.95,43.23 -26.83,54.08 -17.94,10.85 -38.74,16.25 -62.45,16.25 -27.62,0 -49.26,-7.2 -64.87,-21.65 -15.66,-14.34 -23.34,-33.81 -23.02,-58.36l28.89 0z"/>
  <path class="fil4" d="M3768.58 5628.87c22.23,0 39.43,5.92 51.7,17.73 12.26,11.82 19.05,25.27 20.41,40.3l-23.46 0c-2.59,-11.45 -7.82,-20.54 -15.6,-27.25 -7.82,-6.71 -18.77,-10.04 -32.84,-10.04 -17.21,0 -31.07,6.13 -41.65,18.4 -10.58,12.26 -15.85,31.07 -15.85,56.42 0,20.74 4.78,37.62 14.28,50.5 9.55,12.92 23.75,19.39 42.64,19.39 17.37,0 30.62,-6.75 39.72,-20.3 4.81,-7.12 8.39,-16.5 10.78,-28.11l23.46 0c-2.06,18.65 -8.89,34.25 -20.5,46.88 -13.91,15.19 -32.67,22.76 -56.26,22.76 -20.37,0 -37.45,-6.25 -51.28,-18.72 -18.19,-16.47 -27.28,-41.94 -27.28,-76.39 0,-26.14 6.83,-47.58 20.53,-64.29 14.78,-18.19 35.19,-27.28 61.2,-27.28z"/>
  <path id="1" class="fil4" d="M3949.51 5628.87c31.27,0 54.4,10.04 69.43,30.16 11.73,15.68 17.61,35.73 17.61,60.17 0,26.47 -6.71,48.45 -20.12,65.98 -15.77,20.58 -38.2,30.87 -67.38,30.87 -27.24,0 -48.69,-9.02 -64.24,-27 -13.91,-17.37 -20.87,-39.35 -20.87,-65.85 0,-24 5.97,-44.49 17.86,-61.53 15.23,-21.86 37.83,-32.8 67.71,-32.8zm2.55 165.94c21.15,0 36.42,-7.62 45.89,-22.8 9.42,-15.19 14.15,-32.64 14.15,-52.39 0,-20.87 -5.43,-37.66 -16.33,-50.42 -10.91,-12.72 -25.77,-19.1 -44.66,-19.1 -18.36,0 -33.3,6.3 -44.86,18.93 -11.57,12.6 -17.37,31.2 -17.37,55.77 0,19.67 4.98,36.26 14.9,49.76 9.92,13.5 26.01,20.25 48.28,20.25z"/>
  <polygon id="2" class="fil4" points="4065.16,5633.56 4093.47,5633.56 4181.71,5776.78 4181.71,5633.56 4204.68,5633.56 4204.68,5810.86 4177.68,5810.86 4088.12,5667.39 4088.12,5810.86 4065.16,5810.86 "/>
  <polygon id="3" class="fil4" points="4372.14,5633.56 4372.14,5654.55 4312.38,5654.55 4312.38,5810.86 4288.18,5810.86 4288.18,5654.55 4228.42,5654.55 4228.42,5633.56 "/>
  <polygon id="4" class="fil4" points="4396.55,5633.56 4525.21,5633.56 4525.21,5655.29 4420.01,5655.29 4420.01,5709.12 4517.3,5709.12 4517.3,5729.62 4420.01,5729.62 4420.01,5789.87 4526.93,5789.87 4526.93,5810.86 4396.55,5810.86 "/>
  <polygon id="5" class="fil4" points="4559.04,5633.56 4587.35,5633.56 4675.59,5776.78 4675.59,5633.56 4698.56,5633.56 4698.56,5810.86 4671.56,5810.86 4582,5667.39 4582,5810.86 4559.04,5810.86 "/>
  <polygon id="6" class="fil4" points="4866.02,5633.56 4866.02,5654.55 4806.26,5654.55 4806.26,5810.86 4782.06,5810.86 4782.06,5654.55 4722.3,5654.55 4722.3,5633.56 "/>
  <path id="7" class="fil4" d="M4903.76 5753.82c0.54,10.04 2.84,18.15 6.88,24.4 7.65,11.73 21.19,17.58 40.58,17.58 8.68,0 16.58,-1.28 23.7,-3.87 13.79,-4.94 20.71,-13.87 20.71,-26.71 0,-9.63 -2.93,-16.51 -8.77,-20.58 -5.93,-4.03 -15.19,-7.53 -27.78,-10.5l-23.25 -5.43c-15.19,-3.54 -25.93,-7.45 -32.27,-11.73 -10.91,-7.37 -16.34,-18.44 -16.34,-33.13 0,-15.93 5.35,-28.97 16.09,-39.18 10.7,-10.21 25.89,-15.31 45.56,-15.31 18.07,0 33.42,4.49 46.06,13.46 12.63,9.01 18.97,23.33 18.97,43.09l-22.47 0c-1.15,-9.51 -3.62,-16.83 -7.41,-21.9 -7.04,-9.26 -18.97,-13.91 -35.85,-13.91 -13.58,0 -23.37,2.97 -29.3,8.93 -5.97,5.93 -8.93,12.84 -8.93,20.7 0,8.69 3.5,15.03 10.53,19.06 4.61,2.55 15.03,5.76 31.24,9.63l24.08 5.68c11.65,2.72 20.62,6.46 26.92,11.2 10.9,8.27 16.38,20.29 16.38,36.05 0,19.59 -6.96,33.62 -20.87,42.06 -13.95,8.44 -30.13,12.64 -48.57,12.64 -21.48,0 -38.31,-5.6 -50.45,-16.84 -12.19,-11.15 -18.15,-26.3 -17.91,-45.39l22.47 0z"/>
  <path class="fil4" d="M1870.16 5695.12c10.86,0 19.46,-2.26 25.8,-6.79 6.34,-4.49 9.51,-12.64 9.51,-24.45 0,-12.63 -4.45,-21.28 -13.29,-25.89 -4.74,-2.42 -11.08,-3.62 -18.98,-3.62l-56.63 0 0 60.75 53.59 0zm-77.79 -81.24l80.34 0c13.25,0 24.16,1.97 32.76,5.92 16.3,7.54 24.45,21.53 24.45,41.86 0,10.62 -2.19,19.3 -6.59,26.09 -4.4,6.75 -10.58,12.19 -18.48,16.3 6.96,2.8 12.18,6.5 15.72,11.07 3.54,4.57 5.48,12.02 5.89,22.35l0.74 23.83c0.25,6.75 0.82,11.77 1.69,15.06 1.44,5.64 3.99,9.26 7.69,10.87l0 3.95 -29.42 0c-0.79,-1.52 -1.44,-3.5 -1.94,-5.93 -0.49,-2.38 -0.9,-7.08 -1.23,-13.99l-1.24 -29.59c-0.53,-11.57 -4.69,-19.35 -12.47,-23.3 -4.44,-2.18 -11.4,-3.25 -20.86,-3.25l-52.85 0 0 76.06 -24.2 0 0 -177.3z"/>
  <polygon id="1" class="fil4" points="1969.96,5613.88 2098.62,5613.88 2098.62,5635.61 1993.42,5635.61 1993.42,5689.44 2090.71,5689.44 2090.71,5709.94 1993.42,5709.94 1993.42,5770.19 2100.34,5770.19 2100.34,5791.18 1969.96,5791.18 "/>
  <path id="2" class="fil4" d="M2207.72 5609.19c16.42,0 30.58,3.21 42.52,9.63 17.37,9.17 27.98,25.31 31.85,48.4l-23.7 0c-2.84,-12.84 -8.73,-22.15 -17.62,-28.03 -8.89,-5.85 -20.12,-8.77 -33.71,-8.77 -16.05,0 -29.59,6.13 -40.58,18.44 -10.98,12.31 -16.5,30.66 -16.5,54.99 0,21.07 4.53,38.23 13.62,51.44 9.06,13.21 23.87,19.84 44.41,19.84 15.68,0 28.69,-4.61 39.02,-13.87 10.29,-9.26 15.55,-24.24 15.8,-44.9l-55.56 0 0 -20 77.79 0 0 94.82 -15.4 0 -5.76 -22.92c-7.98,8.97 -15.06,15.18 -21.24,18.64 -10.37,5.97 -23.54,8.97 -39.51,8.97 -20.66,0 -38.39,-6.79 -53.29,-20.41 -16.22,-17.08 -24.33,-40.5 -24.33,-70.26 0,-29.71 7.91,-53.34 23.75,-70.91 15.06,-16.75 34.53,-25.1 58.44,-25.1z"/>
  <polygon id="3" class="fil4" points="2329.96,5614.12 2354.16,5614.12 2354.16,5791.18 2329.96,5791.18 "/>
  <path id="4" class="fil4" d="M2408.69 5734.14c0.54,10.04 2.84,18.15 6.88,24.4 7.65,11.73 21.19,17.58 40.58,17.58 8.68,0 16.58,-1.28 23.7,-3.87 13.79,-4.94 20.71,-13.87 20.71,-26.71 0,-9.63 -2.93,-16.51 -8.77,-20.58 -5.93,-4.03 -15.19,-7.53 -27.78,-10.5l-23.25 -5.43c-15.19,-3.54 -25.93,-7.45 -32.27,-11.73 -10.91,-7.37 -16.34,-18.44 -16.34,-33.13 0,-15.93 5.35,-28.97 16.09,-39.18 10.7,-10.21 25.89,-15.31 45.56,-15.31 18.07,0 33.42,4.49 46.06,13.46 12.63,9.01 18.97,23.33 18.97,43.09l-22.47 0c-1.15,-9.51 -3.62,-16.83 -7.41,-21.9 -7.04,-9.26 -18.97,-13.91 -35.85,-13.91 -13.58,0 -23.37,2.97 -29.3,8.93 -5.97,5.93 -8.93,12.84 -8.93,20.7 0,8.69 3.5,15.03 10.53,19.06 4.61,2.55 15.03,5.76 31.24,9.63l24.08 5.68c11.65,2.72 20.62,6.46 26.92,11.2 10.9,8.27 16.38,20.29 16.38,36.05 0,19.59 -6.96,33.62 -20.87,42.06 -13.95,8.44 -30.13,12.64 -48.57,12.64 -21.48,0 -38.31,-5.6 -50.45,-16.84 -12.19,-11.15 -18.15,-26.3 -17.91,-45.39l22.47 0z"/>
  <polygon id="5" class="fil4" points="2686.5,5613.88 2686.5,5634.87 2626.74,5634.87 2626.74,5791.18 2602.54,5791.18 2602.54,5634.87 2542.78,5634.87 2542.78,5613.88 "/>
  <polygon id="6" class="fil4" points="2710.91,5613.88 2839.57,5613.88 2839.57,5635.61 2734.37,5635.61 2734.37,5689.44 2831.66,5689.44 2831.66,5709.94 2734.37,5709.94 2734.37,5770.19 2841.29,5770.19 2841.29,5791.18 2710.91,5791.18 "/>
  <path id="7" class="fil4" d="M2954.15 5695.12c10.86,0 19.46,-2.26 25.8,-6.79 6.34,-4.49 9.51,-12.64 9.51,-24.45 0,-12.63 -4.45,-21.28 -13.29,-25.89 -4.74,-2.42 -11.08,-3.62 -18.98,-3.62l-56.63 0 0 60.75 53.59 0zm-77.79 -81.24l80.34 0c13.25,0 24.16,1.97 32.76,5.92 16.3,7.54 24.45,21.53 24.45,41.86 0,10.62 -2.19,19.3 -6.59,26.09 -4.4,6.75 -10.58,12.19 -18.48,16.3 6.96,2.8 12.18,6.5 15.72,11.07 3.54,4.57 5.48,12.02 5.89,22.35l0.74 23.83c0.25,6.75 0.82,11.77 1.69,15.06 1.44,5.64 3.99,9.26 7.69,10.87l0 3.95 -29.42 0c-0.79,-1.52 -1.44,-3.5 -1.94,-5.93 -0.49,-2.38 -0.9,-7.08 -1.23,-13.99l-1.24 -29.59c-0.53,-11.57 -4.69,-19.35 -12.47,-23.3 -4.44,-2.18 -11.4,-3.25 -20.86,-3.25l-52.85 0 0 76.06 -24.2 0 0 -177.3z"/>
  <path class="fil4" d="M3181.11 6507.68l45.44 0 -22.39 -69.96 -23.05 69.96zm2.51 -110.63l41.98 0 62.64 177.8 -40.25 0 -11.69 -36.55 -65.27 0 -12.06 36.55 -38.69 0 63.34 -177.8z"/>
  <path id="1" class="fil4" d="M3168.97 7016.37l0 39.51 43.17 0c7.7,0 13.95,-1.48 18.77,-4.44 4.81,-2.96 7.2,-8.19 7.2,-15.72 0,-8.36 -3.17,-13.87 -9.55,-16.55 -5.47,-1.85 -12.47,-2.8 -20.99,-2.8l-38.6 0zm0 68.9l0 47.66 43.01 0c7.69,0 13.66,-1.07 17.94,-3.17 7.78,-3.87 11.65,-11.32 11.65,-22.31 0,-9.3 -3.75,-15.68 -11.28,-19.13 -4.2,-1.98 -10.12,-2.97 -17.7,-3.05l-43.62 0zm50.25 -99.52c21.69,0.33 37.04,6.63 46.05,18.94 5.44,7.57 8.15,16.62 8.15,27.16 0,10.86 -2.75,19.59 -8.23,26.17 -3.08,3.71 -7.57,7.08 -13.58,10.13 9.1,3.33 15.93,8.56 20.58,15.68 4.61,7.16 6.91,15.84 6.91,26.05 0,10.54 -2.63,20 -7.9,28.36 -3.37,5.55 -7.57,10.21 -12.59,13.99 -5.68,4.32 -12.35,7.29 -20.05,8.89 -7.73,1.61 -16.09,2.43 -25.1,2.43l-80.05 0 0 -177.8 85.81 0z"/>
  <path class="fil4" d="M3181.11 7777.68l45.44 0 -22.39 -69.96 -23.05 69.96zm2.51 -110.63l41.98 0 62.64 177.8 -40.25 0 -11.69 -36.55 -65.27 0 -12.06 36.55 -38.69 0 63.34 -177.8z"/>
  <path id="1" class="fil4" d="M3168.97 8286.37l0 39.51 43.17 0c7.7,0 13.95,-1.48 18.77,-4.44 4.81,-2.96 7.2,-8.19 7.2,-15.72 0,-8.36 -3.17,-13.87 -9.55,-16.55 -5.47,-1.85 -12.47,-2.8 -20.99,-2.8l-38.6 0zm0 68.9l0 47.66 43.01 0c7.69,0 13.66,-1.07 17.94,-3.17 7.78,-3.87 11.65,-11.32 11.65,-22.31 0,-9.3 -3.75,-15.68 -11.28,-19.13 -4.2,-1.98 -10.12,-2.97 -17.7,-3.05l-43.62 0zm50.25 -99.52c21.69,0.33 37.04,6.63 46.05,18.94 5.44,7.57 8.15,16.62 8.15,27.16 0,10.86 -2.75,19.59 -8.23,26.17 -3.08,3.71 -7.57,7.08 -13.58,10.13 9.1,3.33 15.93,8.56 20.58,15.68 4.61,7.16 6.91,15.84 6.91,26.05 0,10.54 -2.63,20 -7.9,28.36 -3.37,5.55 -7.57,10.21 -12.59,13.99 -5.68,4.32 -12.35,7.29 -20.05,8.89 -7.73,1.61 -16.09,2.43 -25.1,2.43l-80.05 0 0 -177.8 85.81 0z"/>
  <path class="fil4" d="M3181.11 9047.68l45.44 0 -22.39 -69.96 -23.05 69.96zm2.51 -110.63l41.98 0 62.64 177.8 -40.25 0 -11.69 -36.55 -65.27 0 -12.06 36.55 -38.69 0 63.34 -177.8z"/>
  <path id="1" class="fil4" d="M3168.97 9556.37l0 39.51 43.17 0c7.7,0 13.95,-1.48 18.77,-4.44 4.81,-2.96 7.2,-8.19 7.2,-15.72 0,-8.36 -3.17,-13.87 -9.55,-16.55 -5.47,-1.85 -12.47,-2.8 -20.99,-2.8l-38.6 0zm0 68.9l0 47.66 43.01 0c7.69,0 13.66,-1.07 17.94,-3.17 7.78,-3.87 11.65,-11.32 11.65,-22.31 0,-9.3 -3.75,-15.68 -11.28,-19.13 -4.2,-1.98 -10.12,-2.97 -17.7,-3.05l-43.62 0zm50.25 -99.52c21.69,0.33 37.04,6.63 46.05,18.94 5.44,7.57 8.15,16.62 8.15,27.16 0,10.86 -2.75,19.59 -8.23,26.17 -3.08,3.71 -7.57,7.08 -13.58,10.13 9.1,3.33 15.93,8.56 20.58,15.68 4.61,7.16 6.91,15.84 6.91,26.05 0,10.54 -2.63,20 -7.9,28.36 -3.37,5.55 -7.57,10.21 -12.59,13.99 -5.68,4.32 -12.35,7.29 -20.05,8.89 -7.73,1.61 -16.09,2.43 -25.1,2.43l-80.05 0 0 -177.8 85.81 0z"/>
  <path class="fil4" d="M3181.11 10317.68l45.44 0 -22.39 -69.96 -23.05 69.96zm2.51 -110.63l41.98 0 62.64 177.8 -40.25 0 -11.69 -36.55 -65.27 0 -12.06 36.55 -38.69 0 63.34 -177.8z"/>
  <path id="1" class="fil4" d="M3168.97 10826.37l0 39.51 43.17 0c7.7,0 13.95,-1.48 18.77,-4.44 4.81,-2.96 7.2,-8.19 7.2,-15.72 0,-8.36 -3.17,-13.87 -9.55,-16.55 -5.47,-1.85 -12.47,-2.8 -20.99,-2.8l-38.6 0zm0 68.9l0 47.66 43.01 0c7.69,0 13.66,-1.07 17.94,-3.17 7.78,-3.87 11.65,-11.32 11.65,-22.31 0,-9.3 -3.75,-15.68 -11.28,-19.13 -4.2,-1.98 -10.12,-2.97 -17.7,-3.05l-43.62 0zm50.25 -99.52c21.69,0.33 37.04,6.63 46.05,18.94 5.44,7.57 8.15,16.62 8.15,27.16 0,10.86 -2.75,19.59 -8.23,26.17 -3.08,3.71 -7.57,7.08 -13.58,10.13 9.1,3.33 15.93,8.56 20.58,15.68 4.61,7.16 6.91,15.84 6.91,26.05 0,10.54 -2.63,20 -7.9,28.36 -3.37,5.55 -7.57,10.21 -12.59,13.99 -5.68,4.32 -12.35,7.29 -20.05,8.89 -7.73,1.61 -16.09,2.43 -25.1,2.43l-80.05 0 0 -177.8 85.81 0z"/>
  <path class="fil4" d="M3181.11 11587.68l45.44 0 -22.39 -69.96 -23.05 69.96zm2.51 -110.63l41.98 0 62.64 177.8 -40.25 0 -11.69 -36.55 -65.27 0 -12.06 36.55 -38.69 0 63.34 -177.8z"/>
  <path id="1" class="fil4" d="M3168.97 12096.37l0 39.51 43.17 0c7.7,0 13.95,-1.48 18.77,-4.44 4.81,-2.96 7.2,-8.19 7.2,-15.72 0,-8.36 -3.17,-13.87 -9.55,-16.55 -5.47,-1.85 -12.47,-2.8 -20.99,-2.8l-38.6 0zm0 68.9l0 47.66 43.01 0c7.69,0 13.66,-1.07 17.94,-3.17 7.78,-3.87 11.65,-11.32 11.65,-22.31 0,-9.3 -3.75,-15.68 -11.28,-19.13 -4.2,-1.98 -10.12,-2.97 -17.7,-3.05l-43.62 0zm50.25 -99.52c21.69,0.33 37.04,6.63 46.05,18.94 5.44,7.57 8.15,16.62 8.15,27.16 0,10.86 -2.75,19.59 -8.23,26.17 -3.08,3.71 -7.57,7.08 -13.58,10.13 9.1,3.33 15.93,8.56 20.58,15.68 4.61,7.16 6.91,15.84 6.91,26.05 0,10.54 -2.63,20 -7.9,28.36 -3.37,5.55 -7.57,10.21 -12.59,13.99 -5.68,4.32 -12.35,7.29 -20.05,8.89 -7.73,1.61 -16.09,2.43 -25.1,2.43l-80.05 0 0 -177.8 85.81 0z"/>
  <path class="fil4" d="M3181.11 12857.68l45.44 0 -22.39 -69.96 -23.05 69.96zm2.51 -110.63l41.98 0 62.64 177.8 -40.25 0 -11.69 -36.55 -65.27 0 -12.06 36.55 -38.69 0 63.34 -177.8z"/>
  <path id="1" class="fil4" d="M3168.97 13366.37l0 39.51 43.17 0c7.7,0 13.95,-1.48 18.77,-4.44 4.81,-2.96 7.2,-8.19 7.2,-15.72 0,-8.36 -3.17,-13.87 -9.55,-16.55 -5.47,-1.85 -12.47,-2.8 -20.99,-2.8l-38.6 0zm0 68.9l0 47.66 43.01 0c7.69,0 13.66,-1.07 17.94,-3.17 7.78,-3.87 11.65,-11.32 11.65,-22.31 0,-9.3 -3.75,-15.68 -11.28,-19.13 -4.2,-1.98 -10.12,-2.97 -17.7,-3.05l-43.62 0zm50.25 -99.52c21.69,0.33 37.04,6.63 46.05,18.94 5.44,7.57 8.15,16.62 8.15,27.16 0,10.86 -2.75,19.59 -8.23,26.17 -3.08,3.71 -7.57,7.08 -13.58,10.13 9.1,3.33 15.93,8.56 20.58,15.68 4.61,7.16 6.91,15.84 6.91,26.05 0,10.54 -2.63,20 -7.9,28.36 -3.37,5.55 -7.57,10.21 -12.59,13.99 -5.68,4.32 -12.35,7.29 -20.05,8.89 -7.73,1.61 -16.09,2.43 -25.1,2.43l-80.05 0 0 -177.8 85.81 0z"/>
  <path class="fil4" d="M3181.11 14127.68l45.44 0 -22.39 -69.96 -23.05 69.96zm2.51 -110.63l41.98 0 62.64 177.8 -40.25 0 -11.69 -36.55 -65.27 0 -12.06 36.55 -38.69 0 63.34 -177.8z"/>
  <path id="1" class="fil4" d="M3168.97 14636.37l0 39.51 43.17 0c7.7,0 13.95,-1.48 18.77,-4.44 4.81,-2.96 7.2,-8.19 7.2,-15.72 0,-8.36 -3.17,-13.87 -9.55,-16.55 -5.47,-1.85 -12.47,-2.8 -20.99,-2.8l-38.6 0zm0 68.9l0 47.66 43.01 0c7.69,0 13.66,-1.07 17.94,-3.17 7.78,-3.87 11.65,-11.32 11.65,-22.31 0,-9.3 -3.75,-15.68 -11.28,-19.13 -4.2,-1.98 -10.12,-2.97 -17.7,-3.05l-43.62 0zm50.25 -99.52c21.69,0.33 37.04,6.63 46.05,18.94 5.44,7.57 8.15,16.62 8.15,27.16 0,10.86 -2.75,19.59 -8.23,26.17 -3.08,3.71 -7.57,7.08 -13.58,10.13 9.1,3.33 15.93,8.56 20.58,15.68 4.61,7.16 6.91,15.84 6.91,26.05 0,10.54 -2.63,20 -7.9,28.36 -3.37,5.55 -7.57,10.21 -12.59,13.99 -5.68,4.32 -12.35,7.29 -20.05,8.89 -7.73,1.61 -16.09,2.43 -25.1,2.43l-80.05 0 0 -177.8 85.81 0z"/>
  <path class="fil4" d="M3181.11 15397.68l45.44 0 -22.39 -69.96 -23.05 69.96zm2.51 -110.63l41.98 0 62.64 177.8 -40.25 0 -11.69 -36.55 -65.27 0 -12.06 36.55 -38.69 0 63.34 -177.8z"/>
  <path id="1" class="fil4" d="M3168.97 15906.37l0 39.51 43.17 0c7.7,0 13.95,-1.48 18.77,-4.44 4.81,-2.96 7.2,-8.19 7.2,-15.72 0,-8.36 -3.17,-13.87 -9.55,-16.55 -5.47,-1.85 -12.47,-2.8 -20.99,-2.8l-38.6 0zm0 68.9l0 47.66 43.01 0c7.69,0 13.66,-1.07 17.94,-3.17 7.78,-3.87 11.65,-11.32 11.65,-22.31 0,-9.3 -3.75,-15.68 -11.28,-19.13 -4.2,-1.98 -10.12,-2.97 -17.7,-3.05l-43.62 0zm50.25 -99.52c21.69,0.33 37.04,6.63 46.05,18.94 5.44,7.57 8.15,16.62 8.15,27.16 0,10.86 -2.75,19.59 -8.23,26.17 -3.08,3.71 -7.57,7.08 -13.58,10.13 9.1,3.33 15.93,8.56 20.58,15.68 4.61,7.16 6.91,15.84 6.91,26.05 0,10.54 -2.63,20 -7.9,28.36 -3.37,5.55 -7.57,10.21 -12.59,13.99 -5.68,4.32 -12.35,7.29 -20.05,8.89 -7.73,1.61 -16.09,2.43 -25.1,2.43l-80.05 0 0 -177.8 85.81 0z"/>
  <path class="fil4" d="M3181.11 16667.68l45.44 0 -22.39 -69.96 -23.05 69.96zm2.51 -110.63l41.98 0 62.64 177.8 -40.25 0 -11.69 -36.55 -65.27 0 -12.06 36.55 -38.69 0 63.34 -177.8z"/>
  <path id="1" class="fil4" d="M3168.97 17176.37l0 39.51 43.17 0c7.7,0 13.95,-1.48 18.77,-4.44 4.81,-2.96 7.2,-8.19 7.2,-15.72 0,-8.36 -3.17,-13.87 -9.55,-16.55 -5.47,-1.85 -12.47,-2.8 -20.99,-2.8l-38.6 0zm0 68.9l0 47.66 43.01 0c7.69,0 13.66,-1.07 17.94,-3.17 7.78,-3.87 11.65,-11.32 11.65,-22.31 0,-9.3 -3.75,-15.68 -11.28,-19.13 -4.2,-1.98 -10.12,-2.97 -17.7,-3.05l-43.62 0zm50.25 -99.52c21.69,0.33 37.04,6.63 46.05,18.94 5.44,7.57 8.15,16.62 8.15,27.16 0,10.86 -2.75,19.59 -8.23,26.17 -3.08,3.71 -7.57,7.08 -13.58,10.13 9.1,3.33 15.93,8.56 20.58,15.68 4.61,7.16 6.91,15.84 6.91,26.05 0,10.54 -2.63,20 -7.9,28.36 -3.37,5.55 -7.57,10.21 -12.59,13.99 -5.68,4.32 -12.35,7.29 -20.05,8.89 -7.73,1.61 -16.09,2.43 -25.1,2.43l-80.05 0 0 -177.8 85.81 0z"/>
  <path class="fil4" d="M3181.11 17937.68l45.44 0 -22.39 -69.96 -23.05 69.96zm2.51 -110.63l41.98 0 62.64 177.8 -40.25 0 -11.69 -36.55 -65.27 0 -12.06 36.55 -38.69 0 63.34 -177.8z"/>
  <path id="1" class="fil4" d="M3168.97 18446.37l0 39.51 43.17 0c7.7,0 13.95,-1.48 18.77,-4.44 4.81,-2.96 7.2,-8.19 7.2,-15.72 0,-8.36 -3.17,-13.87 -9.55,-16.55 -5.47,-1.85 -12.47,-2.8 -20.99,-2.8l-38.6 0zm0 68.9l0 47.66 43.01 0c7.69,0 13.66,-1.07 17.94,-3.17 7.78,-3.87 11.65,-11.32 11.65,-22.31 0,-9.3 -3.75,-15.68 -11.28,-19.13 -4.2,-1.98 -10.12,-2.97 -17.7,-3.05l-43.62 0zm50.25 -99.52c21.69,0.33 37.04,6.63 46.05,18.94 5.44,7.57 8.15,16.62 8.15,27.16 0,10.86 -2.75,19.59 -8.23,26.17 -3.08,3.71 -7.57,7.08 -13.58,10.13 9.1,3.33 15.93,8.56 20.58,15.68 4.61,7.16 6.91,15.84 6.91,26.05 0,10.54 -2.63,20 -7.9,28.36 -3.37,5.55 -7.57,10.21 -12.59,13.99 -5.68,4.32 -12.35,7.29 -20.05,8.89 -7.73,1.61 -16.09,2.43 -25.1,2.43l-80.05 0 0 -177.8 85.81 0z"/>
  <path class="fil4" d="M3181.11 19207.68l45.44 0 -22.39 -69.96 -23.05 69.96zm2.51 -110.63l41.98 0 62.64 177.8 -40.25 0 -11.69 -36.55 -65.27 0 -12.06 36.55 -38.69 0 63.34 -177.8z"/>
  <path id="1" class="fil4" d="M3168.97 19716.37l0 39.51 43.17 0c7.7,0 13.95,-1.48 18.77,-4.44 4.81,-2.96 7.2,-8.19 7.2,-15.72 0,-8.36 -3.17,-13.87 -9.55,-16.55 -5.47,-1.85 -12.47,-2.8 -20.99,-2.8l-38.6 0zm0 68.9l0 47.66 43.01 0c7.69,0 13.66,-1.07 17.94,-3.17 7.78,-3.87 11.65,-11.32 11.65,-22.31 0,-9.3 -3.75,-15.68 -11.28,-19.13 -4.2,-1.98 -10.12,-2.97 -17.7,-3.05l-43.62 0zm50.25 -99.52c21.69,0.33 37.04,6.63 46.05,18.94 5.44,7.57 8.15,16.62 8.15,27.16 0,10.86 -2.75,19.59 -8.23,26.17 -3.08,3.71 -7.57,7.08 -13.58,10.13 9.1,3.33 15.93,8.56 20.58,15.68 4.61,7.16 6.91,15.84 6.91,26.05 0,10.54 -2.63,20 -7.9,28.36 -3.37,5.55 -7.57,10.21 -12.59,13.99 -5.68,4.32 -12.35,7.29 -20.05,8.89 -7.73,1.61 -16.09,2.43 -25.1,2.43l-80.05 0 0 -177.8 85.81 0z"/>
  <path class="fil4" d="M3181.11 20477.68l45.44 0 -22.39 -69.96 -23.05 69.96zm2.51 -110.63l41.98 0 62.64 177.8 -40.25 0 -11.69 -36.55 -65.27 0 -12.06 36.55 -38.69 0 63.34 -177.8z"/>
  <path id="1" class="fil4" d="M3168.97 20986.37l0 39.51 43.17 0c7.7,0 13.95,-1.48 18.77,-4.44 4.81,-2.96 7.2,-8.19 7.2,-15.72 0,-8.36 -3.17,-13.87 -9.55,-16.55 -5.47,-1.85 -12.47,-2.8 -20.99,-2.8l-38.6 0zm0 68.9l0 47.66 43.01 0c7.69,0 13.66,-1.07 17.94,-3.17 7.78,-3.87 11.65,-11.32 11.65,-22.31 0,-9.3 -3.75,-15.68 -11.28,-19.13 -4.2,-1.98 -10.12,-2.97 -17.7,-3.05l-43.62 0zm50.25 -99.52c21.69,0.33 37.04,6.63 46.05,18.94 5.44,7.57 8.15,16.62 8.15,27.16 0,10.86 -2.75,19.59 -8.23,26.17 -3.08,3.71 -7.57,7.08 -13.58,10.13 9.1,3.33 15.93,8.56 20.58,15.68 4.61,7.16 6.91,15.84 6.91,26.05 0,10.54 -2.63,20 -7.9,28.36 -3.37,5.55 -7.57,10.21 -12.59,13.99 -5.68,4.32 -12.35,7.29 -20.05,8.89 -7.73,1.61 -16.09,2.43 -25.1,2.43l-80.05 0 0 -177.8 85.81 0z"/>
  <path class="fil4" d="M3181.11 21747.68l45.44 0 -22.39 -69.96 -23.05 69.96zm2.51 -110.63l41.98 0 62.64 177.8 -40.25 0 -11.69 -36.55 -65.27 0 -12.06 36.55 -38.69 0 63.34 -177.8z"/>
  <path id="1" class="fil4" d="M3168.97 22256.37l0 39.51 43.17 0c7.7,0 13.95,-1.48 18.77,-4.44 4.81,-2.96 7.2,-8.19 7.2,-15.72 0,-8.36 -3.17,-13.87 -9.55,-16.55 -5.47,-1.85 -12.47,-2.8 -20.99,-2.8l-38.6 0zm0 68.9l0 47.66 43.01 0c7.69,0 13.66,-1.07 17.94,-3.17 7.78,-3.87 11.65,-11.32 11.65,-22.31 0,-9.3 -3.75,-15.68 -11.28,-19.13 -4.2,-1.98 -10.12,-2.97 -17.7,-3.05l-43.62 0zm50.25 -99.52c21.69,0.33 37.04,6.63 46.05,18.94 5.44,7.57 8.15,16.62 8.15,27.16 0,10.86 -2.75,19.59 -8.23,26.17 -3.08,3.71 -7.57,7.08 -13.58,10.13 9.1,3.33 15.93,8.56 20.58,15.68 4.61,7.16 6.91,15.84 6.91,26.05 0,10.54 -2.63,20 -7.9,28.36 -3.37,5.55 -7.57,10.21 -12.59,13.99 -5.68,4.32 -12.35,7.29 -20.05,8.89 -7.73,1.61 -16.09,2.43 -25.1,2.43l-80.05 0 0 -177.8 85.81 0z"/>
  <path class="fil4" d="M3181.11 23017.68l45.44 0 -22.39 -69.96 -23.05 69.96zm2.51 -110.63l41.98 0 62.64 177.8 -40.25 0 -11.69 -36.55 -65.27 0 -12.06 36.55 -38.69 0 63.34 -177.8z"/>
  <path id="1" class="fil4" d="M3168.97 23526.37l0 39.51 43.17 0c7.7,0 13.95,-1.48 18.77,-4.44 4.81,-2.96 7.2,-8.19 7.2,-15.72 0,-8.36 -3.17,-13.87 -9.55,-16.55 -5.47,-1.85 -12.47,-2.8 -20.99,-2.8l-38.6 0zm0 68.9l0 47.66 43.01 0c7.69,0 13.66,-1.07 17.94,-3.17 7.78,-3.87 11.65,-11.32 11.65,-22.31 0,-9.3 -3.75,-15.68 -11.28,-19.13 -4.2,-1.98 -10.12,-2.97 -17.7,-3.05l-43.62 0zm50.25 -99.52c21.69,0.33 37.04,6.63 46.05,18.94 5.44,7.57 8.15,16.62 8.15,27.16 0,10.86 -2.75,19.59 -8.23,26.17 -3.08,3.71 -7.57,7.08 -13.58,10.13 9.1,3.33 15.93,8.56 20.58,15.68 4.61,7.16 6.91,15.84 6.91,26.05 0,10.54 -2.63,20 -7.9,28.36 -3.37,5.55 -7.57,10.21 -12.59,13.99 -5.68,4.32 -12.35,7.29 -20.05,8.89 -7.73,1.61 -16.09,2.43 -25.1,2.43l-80.05 0 0 -177.8 85.81 0z"/>
  <path class="fil4" d="M3181.11 24287.68l45.44 0 -22.39 -69.96 -23.05 69.96zm2.51 -110.63l41.98 0 62.64 177.8 -40.25 0 -11.69 -36.55 -65.27 0 -12.06 36.55 -38.69 0 63.34 -177.8z"/>
  <path id="1" class="fil4" d="M3168.97 24796.37l0 39.51 43.17 0c7.7,0 13.95,-1.48 18.77,-4.44 4.81,-2.96 7.2,-8.19 7.2,-15.72 0,-8.36 -3.17,-13.87 -9.55,-16.55 -5.47,-1.85 -12.47,-2.8 -20.99,-2.8l-38.6 0zm0 68.9l0 47.66 43.01 0c7.69,0 13.66,-1.07 17.94,-3.17 7.78,-3.87 11.65,-11.32 11.65,-22.31 0,-9.3 -3.75,-15.68 -11.28,-19.13 -4.2,-1.98 -10.12,-2.97 -17.7,-3.05l-43.62 0zm50.25 -99.52c21.69,0.33 37.04,6.63 46.05,18.94 5.44,7.57 8.15,16.62 8.15,27.16 0,10.86 -2.75,19.59 -8.23,26.17 -3.08,3.71 -7.57,7.08 -13.58,10.13 9.1,3.33 15.93,8.56 20.58,15.68 4.61,7.16 6.91,15.84 6.91,26.05 0,10.54 -2.63,20 -7.9,28.36 -3.37,5.55 -7.57,10.21 -12.59,13.99 -5.68,4.32 -12.35,7.29 -20.05,8.89 -7.73,1.61 -16.09,2.43 -25.1,2.43l-80.05 0 0 -177.8 85.81 0z"/>
  <path class="fil4" d="M3181.11 25557.68l45.44 0 -22.39 -69.96 -23.05 69.96zm2.51 -110.63l41.98 0 62.64 177.8 -40.25 0 -11.69 -36.55 -65.27 0 -12.06 36.55 -38.69 0 63.34 -177.8z"/>
  <path id="1" class="fil4" d="M3168.97 26066.37l0 39.51 43.17 0c7.7,0 13.95,-1.48 18.77,-4.44 4.81,-2.96 7.2,-8.19 7.2,-15.72 0,-8.36 -3.17,-13.87 -9.55,-16.55 -5.47,-1.85 -12.47,-2.8 -20.99,-2.8l-38.6 0zm0 68.9l0 47.66 43.01 0c7.69,0 13.66,-1.07 17.94,-3.17 7.78,-3.87 11.65,-11.32 11.65,-22.31 0,-9.3 -3.75,-15.68 -11.28,-19.13 -4.2,-1.98 -10.12,-2.97 -17.7,-3.05l-43.62 0zm50.25 -99.52c21.69,0.33 37.04,6.63 46.05,18.94 5.44,7.57 8.15,16.62 8.15,27.16 0,10.86 -2.75,19.59 -8.23,26.17 -3.08,3.71 -7.57,7.08 -13.58,10.13 9.1,3.33 15.93,8.56 20.58,15.68 4.61,7.16 6.91,15.84 6.91,26.05 0,10.54 -2.63,20 -7.9,28.36 -3.37,5.55 -7.57,10.21 -12.59,13.99 -5.68,4.32 -12.35,7.29 -20.05,8.89 -7.73,1.61 -16.09,2.43 -25.1,2.43l-80.05 0 0 -177.8 85.81 0z"/>
  <path class="fil4" d="M1431.84 26557.6l29.5 0 43.64 128.48 43.39 -128.48 29.31 0 0 151.98 -19.68 0 0 -89.71c0,-3.11 0.1,-8.22 0.32,-15.42 0.21,-7.16 0.31,-14.85 0.31,-23.04l-43.6 128.17 -20.39 0 -43.75 -128.17 0 4.66c0,3.7 0.11,9.38 0.32,17 0.21,7.62 0.32,13.23 0.32,16.8l0 89.71 -19.69 0 0 -151.98z"/>
  <path id="1" class="fil4" d="M1674.1 26553.58c26.81,0 46.64,8.61 59.51,25.86 10.06,13.44 15.1,30.62 15.1,51.58 0,22.68 -5.75,41.52 -17.25,56.55 -13.51,17.64 -32.74,26.46 -57.75,26.46 -23.35,0 -41.73,-7.73 -55.07,-23.15 -11.92,-14.88 -17.88,-33.72 -17.88,-56.44 0,-20.57 5.11,-38.14 15.31,-52.74 13.05,-18.74 32.42,-28.12 58.03,-28.12zm2.19 142.24c18.13,0 31.22,-6.53 39.33,-19.54 8.08,-13.02 12.14,-27.98 12.14,-44.91 0,-17.89 -4.66,-32.28 -14.01,-43.22 -9.35,-10.9 -22.08,-16.37 -38.28,-16.37 -15.73,0 -28.54,5.4 -38.45,16.23 -9.91,10.8 -14.89,26.74 -14.89,47.8 0,16.87 4.27,31.08 12.77,42.65 8.51,11.58 22.3,17.36 41.39,17.36z"/>
  <polygon id="2" class="fil4" points="1765.82,26641.21 1817.68,26641.21 1817.68,26660.26 1765.82,26660.26 "/>
  <path id="3" class="fil4" d="M1855.57 26673.81c0.56,10.23 4.52,17.32 11.92,21.24 3.81,2.08 8.12,3.1 12.88,3.1 8.93,0 16.51,-3.7 22.83,-11.11 6.28,-7.41 10.76,-22.48 13.37,-45.16 -4.13,6.53 -9.25,11.11 -15.35,13.76 -6.1,2.65 -12.66,3.99 -19.68,3.99 -14.26,0 -25.55,-4.45 -33.84,-13.3 -8.29,-8.89 -12.45,-20.29 -12.45,-34.26 0,-13.41 4.09,-25.22 12.31,-35.38 8.19,-10.2 20.32,-15.28 36.3,-15.28 21.59,0 36.48,9.7 44.7,29.11 4.55,10.68 6.81,24.02 6.81,40.07 0,18.1 -2.72,34.15 -8.18,48.12 -9.04,23.25 -24.35,34.89 -45.94,34.89 -14.5,0 -25.5,-3.77 -33.02,-11.32 -7.51,-7.59 -11.29,-17.08 -11.29,-28.47l18.63 0zm28.43 -30.48c7.38,0 14.12,-2.44 20.22,-7.27 6.1,-4.87 9.14,-13.34 9.14,-25.44 0,-10.86 -2.76,-18.94 -8.22,-24.27 -5.47,-5.32 -12.46,-8.01 -20.96,-8.01 -9.1,0 -16.3,3.04 -21.66,9.14 -5.33,6.07 -8.01,14.22 -8.01,24.38 0,9.63 2.33,17.29 7.02,22.97 4.69,5.68 12.17,8.5 22.47,8.5z"/>
  <path id="4" class="fil4" d="M1951.91 26709.58c0.67,-12.74 3.32,-23.85 7.94,-33.27 4.59,-9.45 13.55,-18.02 26.81,-25.72l19.83 -11.46c8.89,-5.19 15.1,-9.6 18.66,-13.27 5.64,-5.75 8.47,-12.31 8.47,-19.72 0,-8.64 -2.58,-15.52 -7.73,-20.6 -5.15,-5.08 -12.03,-7.62 -20.6,-7.62 -12.74,0 -21.52,4.87 -26.39,14.57 -2.61,5.19 -4.06,12.42 -4.34,21.63l-19.05 0c0.21,-12.92 2.58,-23.43 7.13,-31.58 8.04,-14.36 22.26,-21.55 42.65,-21.55 16.93,0 29.31,4.58 37.15,13.76 7.79,9.17 11.71,19.4 11.71,30.62 0,11.89 -4.16,22.01 -12.49,30.44 -4.8,4.87 -13.44,10.8 -25.86,17.78l-14.15 7.84c-6.7,3.73 -12.03,7.26 -15.91,10.65 -6.91,6 -11.29,12.63 -13.08,19.93l80.85 0 0 17.57 -101.6 0z"/>
  <path id="5" class="fil4" d="M2142.45 26553.58c19.05,0 33.79,5.08 44.31,15.2 10.51,10.13 16.33,21.67 17.49,34.54l-20.1 0c-2.23,-9.81 -6.71,-17.6 -13.38,-23.35 -6.7,-5.75 -16.08,-8.61 -28.15,-8.61 -14.74,0 -26.63,5.26 -35.7,15.77 -9.07,10.51 -13.58,26.63 -13.58,48.37 0,17.78 4.09,32.24 12.24,43.28 8.18,11.08 20.36,16.62 36.55,16.62 14.89,0 26.25,-5.79 34.04,-17.39 4.13,-6.11 7.2,-14.15 9.25,-24.1l20.1 0c-1.76,15.98 -7.62,29.35 -17.56,40.18 -11.93,13.02 -28.02,19.51 -48.23,19.51 -17.46,0 -32.1,-5.36 -43.96,-16.05 -15.59,-14.11 -23.39,-35.95 -23.39,-65.48 0,-22.4 5.86,-40.78 17.61,-55.1 12.66,-15.59 30.16,-23.39 52.46,-23.39z"/>
 </g>
</svg>
