<?xml version="1.0" encoding="UTF-8"?>
<!DOCTYPE svg PUBLIC "-//W3C//DTD SVG 1.1//EN" "http://www.w3.org/Graphics/SVG/1.1/DTD/svg11.dtd">
<!-- Creator: CorelDRAW 2019 (64-Bit) -->
<svg xmlns="http://www.w3.org/2000/svg" xml:space="preserve" width="381mm" height="279.4mm" version="1.1" style="shape-rendering:geometricPrecision; text-rendering:geometricPrecision; image-rendering:optimizeQuality; fill-rule:evenodd; clip-rule:evenodd"
viewBox="0 0 38100 27940"
 xmlns:xlink="http://www.w3.org/1999/xlink"
 xmlns:xodm="http://www.corel.com/coreldraw/odm/2003">
 <defs>
  <style type="text/css">
   <![CDATA[
    .str2 {stroke:#009933;stroke-width:20;stroke-miterlimit:22.9256}
    .str1 {stroke:#00CCFF;stroke-width:20;stroke-miterlimit:22.9256}
    .str0 {stroke:#B3B3B3;stroke-width:7.62;stroke-miterlimit:22.9256;stroke-dasharray:76.200000 22.860000}
    .fil1 {fill:none}
    .fil2 {fill:#B3B3B3}
    .fil0 {fill:white}
    .fil3 {fill:#00CCFF;fill-opacity:0.200000}
    .fil4 {fill:#009933;fill-opacity:0.301961}
   ]]>
  </style>
 </defs>
 <g id="Paper">
  <metadata id="CorelCorpID_0Corel-Layer"/>
  <rect class="fil0" x="-10.11" y="-12.29" width="38100" height="27940"/>
  <line class="fil1 str0" x1="-10.11" y1="27927.78" x2="38089.89" y2= "27927.78" />
 </g>
 <g id="Star_x0020_Sprokets">
  <metadata id="CorelCorpID_1Corel-Layer"/>
  <g id="_2206214503760">
   <polygon class="fil2" points="622.35,407.99 651.84,433.87 687.89,418.37 707.93,452.11 747.01,448.5 755.65,486.78 793.93,495.42 790.32,534.5 824.06,554.54 808.56,590.59 834.44,620.08 808.56,649.57 824.06,685.62 790.32,705.66 793.93,744.74 755.65,753.38 747.01,791.66 707.93,788.05 687.89,821.79 651.84,806.29 622.35,832.17 592.86,806.29 556.81,821.79 536.77,788.05 497.69,791.66 489.05,753.38 450.77,744.74 454.38,705.66 420.64,685.62 436.14,649.57 410.26,620.08 436.14,590.59 420.64,554.54 454.38,534.5 450.77,495.42 489.05,486.78 497.69,448.5 536.77,452.11 556.81,418.37 592.86,433.87 "/>
   <polygon class="fil2" points="622.35,1677.99 651.84,1703.87 687.89,1688.37 707.93,1722.11 747.01,1718.5 755.65,1756.78 793.93,1765.42 790.32,1804.5 824.06,1824.54 808.56,1860.59 834.44,1890.08 808.56,1919.57 824.06,1955.62 790.32,1975.66 793.93,2014.74 755.65,2023.38 747.01,2061.66 707.93,2058.05 687.89,2091.79 651.84,2076.29 622.35,2102.17 592.86,2076.29 556.81,2091.79 536.77,2058.05 497.69,2061.66 489.05,2023.38 450.77,2014.74 454.38,1975.66 420.64,1955.62 436.14,1919.57 410.26,1890.08 436.14,1860.59 420.64,1824.54 454.38,1804.5 450.77,1765.42 489.05,1756.78 497.69,1718.5 536.77,1722.11 556.81,1688.37 592.86,1703.87 "/>
   <polygon class="fil2" points="622.35,2947.99 651.84,2973.87 687.89,2958.37 707.93,2992.11 747.01,2988.5 755.65,3026.78 793.93,3035.42 790.32,3074.5 824.06,3094.54 808.56,3130.59 834.44,3160.08 808.56,3189.57 824.06,3225.62 790.32,3245.66 793.93,3284.74 755.65,3293.38 747.01,3331.66 707.93,3328.05 687.89,3361.79 651.84,3346.29 622.35,3372.17 592.86,3346.29 556.81,3361.79 536.77,3328.05 497.69,3331.66 489.05,3293.38 450.77,3284.74 454.38,3245.66 420.64,3225.62 436.14,3189.57 410.26,3160.08 436.14,3130.59 420.64,3094.54 454.38,3074.5 450.77,3035.42 489.05,3026.78 497.69,2988.5 536.77,2992.11 556.81,2958.37 592.86,2973.87 "/>
   <polygon class="fil2" points="622.35,4217.99 651.84,4243.87 687.89,4228.37 707.93,4262.11 747.01,4258.5 755.65,4296.78 793.93,4305.42 790.32,4344.5 824.06,4364.54 808.56,4400.59 834.44,4430.08 808.56,4459.57 824.06,4495.62 790.32,4515.66 793.93,4554.74 755.65,4563.38 747.01,4601.66 707.93,4598.05 687.89,4631.79 651.84,4616.29 622.35,4642.17 592.86,4616.29 556.81,4631.79 536.77,4598.05 497.69,4601.66 489.05,4563.38 450.77,4554.74 454.38,4515.66 420.64,4495.62 436.14,4459.57 410.26,4430.08 436.14,4400.59 420.64,4364.54 454.38,4344.5 450.77,4305.42 489.05,4296.78 497.69,4258.5 536.77,4262.11 556.81,4228.37 592.86,4243.87 "/>
   <polygon class="fil2" points="622.35,5487.99 651.84,5513.87 687.89,5498.37 707.93,5532.11 747.01,5528.5 755.65,5566.78 793.93,5575.42 790.32,5614.5 824.06,5634.54 808.56,5670.59 834.44,5700.08 808.56,5729.57 824.06,5765.62 790.32,5785.66 793.93,5824.74 755.65,5833.38 747.01,5871.66 707.93,5868.05 687.89,5901.79 651.84,5886.29 622.35,5912.17 592.86,5886.29 556.81,5901.79 536.77,5868.05 497.69,5871.66 489.05,5833.38 450.77,5824.74 454.38,5785.66 420.64,5765.62 436.14,5729.57 410.26,5700.08 436.14,5670.59 420.64,5634.54 454.38,5614.5 450.77,5575.42 489.05,5566.78 497.69,5528.5 536.77,5532.11 556.81,5498.37 592.86,5513.87 "/>
   <polygon class="fil2" points="622.35,6757.99 651.84,6783.87 687.89,6768.37 707.93,6802.11 747.01,6798.5 755.65,6836.78 793.93,6845.42 790.32,6884.5 824.06,6904.54 808.56,6940.59 834.44,6970.08 808.56,6999.57 824.06,7035.62 790.32,7055.66 793.93,7094.74 755.65,7103.38 747.01,7141.66 707.93,7138.05 687.89,7171.79 651.84,7156.29 622.35,7182.17 592.86,7156.29 556.81,7171.79 536.77,7138.05 497.69,7141.66 489.05,7103.38 450.77,7094.74 454.38,7055.66 420.64,7035.62 436.14,6999.57 410.26,6970.08 436.14,6940.59 420.64,6904.54 454.38,6884.5 450.77,6845.42 489.05,6836.78 497.69,6798.5 536.77,6802.11 556.81,6768.37 592.86,6783.87 "/>
   <polygon class="fil2" points="622.35,8027.99 651.84,8053.87 687.89,8038.37 707.93,8072.11 747.01,8068.5 755.65,8106.78 793.93,8115.42 790.32,8154.5 824.06,8174.54 808.56,8210.59 834.44,8240.08 808.56,8269.57 824.06,8305.62 790.32,8325.66 793.93,8364.74 755.65,8373.38 747.01,8411.66 707.93,8408.05 687.89,8441.79 651.84,8426.29 622.35,8452.17 592.86,8426.29 556.81,8441.79 536.77,8408.05 497.69,8411.66 489.05,8373.38 450.77,8364.74 454.38,8325.66 420.64,8305.62 436.14,8269.57 410.26,8240.08 436.14,8210.59 420.64,8174.54 454.38,8154.5 450.77,8115.42 489.05,8106.78 497.69,8068.5 536.77,8072.11 556.81,8038.37 592.86,8053.87 "/>
   <polygon class="fil2" points="622.35,9297.99 651.84,9323.87 687.89,9308.37 707.93,9342.11 747.01,9338.5 755.65,9376.78 793.93,9385.42 790.32,9424.5 824.06,9444.54 808.56,9480.59 834.44,9510.08 808.56,9539.57 824.06,9575.62 790.32,9595.66 793.93,9634.74 755.65,9643.38 747.01,9681.66 707.93,9678.05 687.89,9711.79 651.84,9696.29 622.35,9722.17 592.86,9696.29 556.81,9711.79 536.77,9678.05 497.69,9681.66 489.05,9643.38 450.77,9634.74 454.38,9595.66 420.64,9575.62 436.14,9539.57 410.26,9510.08 436.14,9480.59 420.64,9444.54 454.38,9424.5 450.77,9385.42 489.05,9376.78 497.69,9338.5 536.77,9342.11 556.81,9308.37 592.86,9323.87 "/>
   <polygon class="fil2" points="622.35,10567.99 651.84,10593.87 687.89,10578.37 707.93,10612.11 747.01,10608.5 755.65,10646.78 793.93,10655.42 790.32,10694.5 824.06,10714.54 808.56,10750.59 834.44,10780.08 808.56,10809.57 824.06,10845.62 790.32,10865.66 793.93,10904.74 755.65,10913.38 747.01,10951.66 707.93,10948.05 687.89,10981.79 651.84,10966.29 622.35,10992.17 592.86,10966.29 556.81,10981.79 536.77,10948.05 497.69,10951.66 489.05,10913.38 450.77,10904.74 454.38,10865.66 420.64,10845.62 436.14,10809.57 410.26,10780.08 436.14,10750.59 420.64,10714.54 454.38,10694.5 450.77,10655.42 489.05,10646.78 497.69,10608.5 536.77,10612.11 556.81,10578.37 592.86,10593.87 "/>
   <polygon class="fil2" points="622.35,11837.99 651.84,11863.87 687.89,11848.37 707.93,11882.11 747.01,11878.5 755.65,11916.78 793.93,11925.42 790.32,11964.5 824.06,11984.54 808.56,12020.59 834.44,12050.08 808.56,12079.57 824.06,12115.62 790.32,12135.66 793.93,12174.74 755.65,12183.38 747.01,12221.66 707.93,12218.05 687.89,12251.79 651.84,12236.29 622.35,12262.17 592.86,12236.29 556.81,12251.79 536.77,12218.05 497.69,12221.66 489.05,12183.38 450.77,12174.74 454.38,12135.66 420.64,12115.62 436.14,12079.57 410.26,12050.08 436.14,12020.59 420.64,11984.54 454.38,11964.5 450.77,11925.42 489.05,11916.78 497.69,11878.5 536.77,11882.11 556.81,11848.37 592.86,11863.87 "/>
   <polygon class="fil2" points="622.35,13107.99 651.84,13133.87 687.89,13118.37 707.93,13152.11 747.01,13148.5 755.65,13186.78 793.93,13195.42 790.32,13234.5 824.06,13254.54 808.56,13290.59 834.44,13320.08 808.56,13349.57 824.06,13385.62 790.32,13405.66 793.93,13444.74 755.65,13453.38 747.01,13491.66 707.93,13488.05 687.89,13521.79 651.84,13506.29 622.35,13532.17 592.86,13506.29 556.81,13521.79 536.77,13488.05 497.69,13491.66 489.05,13453.38 450.77,13444.74 454.38,13405.66 420.64,13385.62 436.14,13349.57 410.26,13320.08 436.14,13290.59 420.64,13254.54 454.38,13234.5 450.77,13195.42 489.05,13186.78 497.69,13148.5 536.77,13152.11 556.81,13118.37 592.86,13133.87 "/>
   <polygon class="fil2" points="622.35,14377.99 651.84,14403.87 687.89,14388.37 707.93,14422.11 747.01,14418.5 755.65,14456.78 793.93,14465.42 790.32,14504.5 824.06,14524.54 808.56,14560.59 834.44,14590.08 808.56,14619.57 824.06,14655.62 790.32,14675.66 793.93,14714.74 755.65,14723.38 747.01,14761.66 707.93,14758.05 687.89,14791.79 651.84,14776.29 622.35,14802.17 592.86,14776.29 556.81,14791.79 536.77,14758.05 497.69,14761.66 489.05,14723.38 450.77,14714.74 454.38,14675.66 420.64,14655.62 436.14,14619.57 410.26,14590.08 436.14,14560.59 420.64,14524.54 454.38,14504.5 450.77,14465.42 489.05,14456.78 497.69,14418.5 536.77,14422.11 556.81,14388.37 592.86,14403.87 "/>
   <polygon class="fil2" points="622.35,15647.99 651.84,15673.87 687.89,15658.37 707.93,15692.11 747.01,15688.5 755.65,15726.78 793.93,15735.42 790.32,15774.5 824.06,15794.54 808.56,15830.59 834.44,15860.08 808.56,15889.57 824.06,15925.62 790.32,15945.66 793.93,15984.74 755.65,15993.38 747.01,16031.66 707.93,16028.05 687.89,16061.79 651.84,16046.29 622.35,16072.17 592.86,16046.29 556.81,16061.79 536.77,16028.05 497.69,16031.66 489.05,15993.38 450.77,15984.74 454.38,15945.66 420.64,15925.62 436.14,15889.57 410.26,15860.08 436.14,15830.59 420.64,15794.54 454.38,15774.5 450.77,15735.42 489.05,15726.78 497.69,15688.5 536.77,15692.11 556.81,15658.37 592.86,15673.87 "/>
   <polygon class="fil2" points="622.35,16917.99 651.84,16943.87 687.89,16928.37 707.93,16962.11 747.01,16958.5 755.65,16996.78 793.93,17005.42 790.32,17044.5 824.06,17064.54 808.56,17100.59 834.44,17130.08 808.56,17159.57 824.06,17195.62 790.32,17215.66 793.93,17254.74 755.65,17263.38 747.01,17301.66 707.93,17298.05 687.89,17331.79 651.84,17316.29 622.35,17342.17 592.86,17316.29 556.81,17331.79 536.77,17298.05 497.69,17301.66 489.05,17263.38 450.77,17254.74 454.38,17215.66 420.64,17195.62 436.14,17159.57 410.26,17130.08 436.14,17100.59 420.64,17064.54 454.38,17044.5 450.77,17005.42 489.05,16996.78 497.69,16958.5 536.77,16962.11 556.81,16928.37 592.86,16943.87 "/>
   <polygon class="fil2" points="622.35,18187.99 651.84,18213.87 687.89,18198.37 707.93,18232.11 747.01,18228.5 755.65,18266.78 793.93,18275.42 790.32,18314.5 824.06,18334.54 808.56,18370.59 834.44,18400.08 808.56,18429.57 824.06,18465.62 790.32,18485.66 793.93,18524.74 755.65,18533.38 747.01,18571.66 707.93,18568.05 687.89,18601.79 651.84,18586.29 622.35,18612.17 592.86,18586.29 556.81,18601.79 536.77,18568.05 497.69,18571.66 489.05,18533.38 450.77,18524.74 454.38,18485.66 420.64,18465.62 436.14,18429.57 410.26,18400.08 436.14,18370.59 420.64,18334.54 454.38,18314.5 450.77,18275.42 489.05,18266.78 497.69,18228.5 536.77,18232.11 556.81,18198.37 592.86,18213.87 "/>
   <polygon class="fil2" points="622.35,19457.99 651.84,19483.87 687.89,19468.37 707.93,19502.11 747.01,19498.5 755.65,19536.78 793.93,19545.42 790.32,19584.5 824.06,19604.54 808.56,19640.59 834.44,19670.08 808.56,19699.57 824.06,19735.62 790.32,19755.66 793.93,19794.74 755.65,19803.38 747.01,19841.66 707.93,19838.05 687.89,19871.79 651.84,19856.29 622.35,19882.17 592.86,19856.29 556.81,19871.79 536.77,19838.05 497.69,19841.66 489.05,19803.38 450.77,19794.74 454.38,19755.66 420.64,19735.62 436.14,19699.57 410.26,19670.08 436.14,19640.59 420.64,19604.54 454.38,19584.5 450.77,19545.42 489.05,19536.78 497.69,19498.5 536.77,19502.11 556.81,19468.37 592.86,19483.87 "/>
   <polygon class="fil2" points="622.35,20727.99 651.84,20753.87 687.89,20738.37 707.93,20772.11 747.01,20768.5 755.65,20806.78 793.93,20815.42 790.32,20854.5 824.06,20874.54 808.56,20910.59 834.44,20940.08 808.56,20969.57 824.06,21005.62 790.32,21025.66 793.93,21064.74 755.65,21073.38 747.01,21111.66 707.93,21108.05 687.89,21141.79 651.84,21126.29 622.35,21152.17 592.86,21126.29 556.81,21141.79 536.77,21108.05 497.69,21111.66 489.05,21073.38 450.77,21064.74 454.38,21025.66 420.64,21005.62 436.14,20969.57 410.26,20940.08 436.14,20910.59 420.64,20874.54 454.38,20854.5 450.77,20815.42 489.05,20806.78 497.69,20768.5 536.77,20772.11 556.81,20738.37 592.86,20753.87 "/>
   <polygon class="fil2" points="622.35,21997.99 651.84,22023.87 687.89,22008.37 707.93,22042.11 747.01,22038.5 755.65,22076.78 793.93,22085.42 790.32,22124.5 824.06,22144.54 808.56,22180.59 834.44,22210.08 808.56,22239.57 824.06,22275.62 790.32,22295.66 793.93,22334.74 755.65,22343.38 747.01,22381.66 707.93,22378.05 687.89,22411.79 651.84,22396.29 622.35,22422.17 592.86,22396.29 556.81,22411.79 536.77,22378.05 497.69,22381.66 489.05,22343.38 450.77,22334.74 454.38,22295.66 420.64,22275.62 436.14,22239.57 410.26,22210.08 436.14,22180.59 420.64,22144.54 454.38,22124.5 450.77,22085.42 489.05,22076.78 497.69,22038.5 536.77,22042.11 556.81,22008.37 592.86,22023.87 "/>
   <polygon class="fil2" points="622.35,23267.99 651.84,23293.87 687.89,23278.37 707.93,23312.11 747.01,23308.5 755.65,23346.78 793.93,23355.42 790.32,23394.5 824.06,23414.54 808.56,23450.59 834.44,23480.08 808.56,23509.57 824.06,23545.62 790.32,23565.66 793.93,23604.74 755.65,23613.38 747.01,23651.66 707.93,23648.05 687.89,23681.79 651.84,23666.29 622.35,23692.17 592.86,23666.29 556.81,23681.79 536.77,23648.05 497.69,23651.66 489.05,23613.38 450.77,23604.74 454.38,23565.66 420.64,23545.62 436.14,23509.57 410.26,23480.08 436.14,23450.59 420.64,23414.54 454.38,23394.5 450.77,23355.42 489.05,23346.78 497.69,23308.5 536.77,23312.11 556.81,23278.37 592.86,23293.87 "/>
   <polygon class="fil2" points="622.35,24537.99 651.84,24563.87 687.89,24548.37 707.93,24582.11 747.01,24578.5 755.65,24616.78 793.93,24625.42 790.32,24664.5 824.06,24684.54 808.56,24720.59 834.44,24750.08 808.56,24779.57 824.06,24815.62 790.32,24835.66 793.93,24874.74 755.65,24883.38 747.01,24921.66 707.93,24918.05 687.89,24951.79 651.84,24936.29 622.35,24962.17 592.86,24936.29 556.81,24951.79 536.77,24918.05 497.69,24921.66 489.05,24883.38 450.77,24874.74 454.38,24835.66 420.64,24815.62 436.14,24779.57 410.26,24750.08 436.14,24720.59 420.64,24684.54 454.38,24664.5 450.77,24625.42 489.05,24616.78 497.69,24578.5 536.77,24582.11 556.81,24548.37 592.86,24563.87 "/>
   <polygon class="fil2" points="622.35,25807.99 651.84,25833.87 687.89,25818.37 707.93,25852.11 747.01,25848.5 755.65,25886.78 793.93,25895.42 790.32,25934.5 824.06,25954.54 808.56,25990.59 834.44,26020.08 808.56,26049.57 824.06,26085.62 790.32,26105.66 793.93,26144.74 755.65,26153.38 747.01,26191.66 707.93,26188.05 687.89,26221.79 651.84,26206.29 622.35,26232.17 592.86,26206.29 556.81,26221.79 536.77,26188.05 497.69,26191.66 489.05,26153.38 450.77,26144.74 454.38,26105.66 420.64,26085.62 436.14,26049.57 410.26,26020.08 436.14,25990.59 420.64,25954.54 454.38,25934.5 450.77,25895.42 489.05,25886.78 497.69,25848.5 536.77,25852.11 556.81,25818.37 592.86,25833.87 "/>
   <polygon class="fil2" points="622.35,27077.99 651.84,27103.87 687.89,27088.37 707.93,27122.11 747.01,27118.5 755.65,27156.78 793.93,27165.42 790.32,27204.5 824.06,27224.54 808.56,27260.59 834.44,27290.08 808.56,27319.57 824.06,27355.62 790.32,27375.66 793.93,27414.74 755.65,27423.38 747.01,27461.66 707.93,27458.05 687.89,27491.79 651.84,27476.29 622.35,27502.17 592.86,27476.29 556.81,27491.79 536.77,27458.05 497.69,27461.66 489.05,27423.38 450.77,27414.74 454.38,27375.66 420.64,27355.62 436.14,27319.57 410.26,27290.08 436.14,27260.59 420.64,27224.54 454.38,27204.5 450.77,27165.42 489.05,27156.78 497.69,27118.5 536.77,27122.11 556.81,27088.37 592.86,27103.87 "/>
  </g>
  <g id="_2206214497488">
   <polygon class="fil2" points="37453.62,407.99 37483.11,433.87 37519.16,418.37 37539.2,452.11 37578.28,448.5 37586.92,486.78 37625.2,495.42 37621.59,534.5 37655.33,554.54 37639.83,590.59 37665.71,620.08 37639.83,649.57 37655.33,685.62 37621.59,705.66 37625.2,744.74 37586.92,753.38 37578.28,791.66 37539.2,788.05 37519.16,821.79 37483.11,806.29 37453.62,832.17 37424.13,806.29 37388.08,821.79 37368.04,788.05 37328.96,791.66 37320.32,753.38 37282.04,744.74 37285.65,705.66 37251.91,685.62 37267.41,649.57 37241.53,620.08 37267.41,590.59 37251.91,554.54 37285.65,534.5 37282.04,495.42 37320.32,486.78 37328.96,448.5 37368.04,452.11 37388.08,418.37 37424.13,433.87 "/>
   <polygon class="fil2" points="37453.62,1677.99 37483.11,1703.87 37519.16,1688.37 37539.2,1722.11 37578.28,1718.5 37586.92,1756.78 37625.2,1765.42 37621.59,1804.5 37655.33,1824.54 37639.83,1860.59 37665.71,1890.08 37639.83,1919.57 37655.33,1955.62 37621.59,1975.66 37625.2,2014.74 37586.92,2023.38 37578.28,2061.66 37539.2,2058.05 37519.16,2091.79 37483.11,2076.29 37453.62,2102.17 37424.13,2076.29 37388.08,2091.79 37368.04,2058.05 37328.96,2061.66 37320.32,2023.38 37282.04,2014.74 37285.65,1975.66 37251.91,1955.62 37267.41,1919.57 37241.53,1890.08 37267.41,1860.59 37251.91,1824.54 37285.65,1804.5 37282.04,1765.42 37320.32,1756.78 37328.96,1718.5 37368.04,1722.11 37388.08,1688.37 37424.13,1703.87 "/>
   <polygon class="fil2" points="37453.62,2947.99 37483.11,2973.87 37519.16,2958.37 37539.2,2992.11 37578.28,2988.5 37586.92,3026.78 37625.2,3035.42 37621.59,3074.5 37655.33,3094.54 37639.83,3130.59 37665.71,3160.08 37639.83,3189.57 37655.33,3225.62 37621.59,3245.66 37625.2,3284.74 37586.92,3293.38 37578.28,3331.66 37539.2,3328.05 37519.16,3361.79 37483.11,3346.29 37453.62,3372.17 37424.13,3346.29 37388.08,3361.79 37368.04,3328.05 37328.96,3331.66 37320.32,3293.38 37282.04,3284.74 37285.65,3245.66 37251.91,3225.62 37267.41,3189.57 37241.53,3160.08 37267.41,3130.59 37251.91,3094.54 37285.65,3074.5 37282.04,3035.42 37320.32,3026.78 37328.96,2988.5 37368.04,2992.11 37388.08,2958.37 37424.13,2973.87 "/>
   <polygon class="fil2" points="37453.62,4217.99 37483.11,4243.87 37519.16,4228.37 37539.2,4262.11 37578.28,4258.5 37586.92,4296.78 37625.2,4305.42 37621.59,4344.5 37655.33,4364.54 37639.83,4400.59 37665.71,4430.08 37639.83,4459.57 37655.33,4495.62 37621.59,4515.66 37625.2,4554.74 37586.92,4563.38 37578.28,4601.66 37539.2,4598.05 37519.16,4631.79 37483.11,4616.29 37453.62,4642.17 37424.13,4616.29 37388.08,4631.79 37368.04,4598.05 37328.96,4601.66 37320.32,4563.38 37282.04,4554.74 37285.65,4515.66 37251.91,4495.62 37267.41,4459.57 37241.53,4430.08 37267.41,4400.59 37251.91,4364.54 37285.65,4344.5 37282.04,4305.42 37320.32,4296.78 37328.96,4258.5 37368.04,4262.11 37388.08,4228.37 37424.13,4243.87 "/>
   <polygon class="fil2" points="37453.62,5487.99 37483.11,5513.87 37519.16,5498.37 37539.2,5532.11 37578.28,5528.5 37586.92,5566.78 37625.2,5575.42 37621.59,5614.5 37655.33,5634.54 37639.83,5670.59 37665.71,5700.08 37639.83,5729.57 37655.33,5765.62 37621.59,5785.66 37625.2,5824.74 37586.92,5833.38 37578.28,5871.66 37539.2,5868.05 37519.16,5901.79 37483.11,5886.29 37453.62,5912.17 37424.13,5886.29 37388.08,5901.79 37368.04,5868.05 37328.96,5871.66 37320.32,5833.38 37282.04,5824.74 37285.65,5785.66 37251.91,5765.62 37267.41,5729.57 37241.53,5700.08 37267.41,5670.59 37251.91,5634.54 37285.65,5614.5 37282.04,5575.42 37320.32,5566.78 37328.96,5528.5 37368.04,5532.11 37388.08,5498.37 37424.13,5513.87 "/>
   <polygon class="fil2" points="37453.62,6757.99 37483.11,6783.87 37519.16,6768.37 37539.2,6802.11 37578.28,6798.5 37586.92,6836.78 37625.2,6845.42 37621.59,6884.5 37655.33,6904.54 37639.83,6940.59 37665.71,6970.08 37639.83,6999.57 37655.33,7035.62 37621.59,7055.66 37625.2,7094.74 37586.92,7103.38 37578.28,7141.66 37539.2,7138.05 37519.16,7171.79 37483.11,7156.29 37453.62,7182.17 37424.13,7156.29 37388.08,7171.79 37368.04,7138.05 37328.96,7141.66 37320.32,7103.38 37282.04,7094.74 37285.65,7055.66 37251.91,7035.62 37267.41,6999.57 37241.53,6970.08 37267.41,6940.59 37251.91,6904.54 37285.65,6884.5 37282.04,6845.42 37320.32,6836.78 37328.96,6798.5 37368.04,6802.11 37388.08,6768.37 37424.13,6783.87 "/>
   <polygon class="fil2" points="37453.62,8027.99 37483.11,8053.87 37519.16,8038.37 37539.2,8072.11 37578.28,8068.5 37586.92,8106.78 37625.2,8115.42 37621.59,8154.5 37655.33,8174.54 37639.83,8210.59 37665.71,8240.08 37639.83,8269.57 37655.33,8305.62 37621.59,8325.66 37625.2,8364.74 37586.92,8373.38 37578.28,8411.66 37539.2,8408.05 37519.16,8441.79 37483.11,8426.29 37453.62,8452.17 37424.13,8426.29 37388.08,8441.79 37368.04,8408.05 37328.96,8411.66 37320.32,8373.38 37282.04,8364.74 37285.65,8325.66 37251.91,8305.62 37267.41,8269.57 37241.53,8240.08 37267.41,8210.59 37251.91,8174.54 37285.65,8154.5 37282.04,8115.42 37320.32,8106.78 37328.96,8068.5 37368.04,8072.11 37388.08,8038.37 37424.13,8053.87 "/>
   <polygon class="fil2" points="37453.62,9297.99 37483.11,9323.87 37519.16,9308.37 37539.2,9342.11 37578.28,9338.5 37586.92,9376.78 37625.2,9385.42 37621.59,9424.5 37655.33,9444.54 37639.83,9480.59 37665.71,9510.08 37639.83,9539.57 37655.33,9575.62 37621.59,9595.66 37625.2,9634.74 37586.92,9643.38 37578.28,9681.66 37539.2,9678.05 37519.16,9711.79 37483.11,9696.29 37453.62,9722.17 37424.13,9696.29 37388.08,9711.79 37368.04,9678.05 37328.96,9681.66 37320.32,9643.38 37282.04,9634.74 37285.65,9595.66 37251.91,9575.62 37267.41,9539.57 37241.53,9510.08 37267.41,9480.59 37251.91,9444.54 37285.65,9424.5 37282.04,9385.42 37320.32,9376.78 37328.96,9338.5 37368.04,9342.11 37388.08,9308.37 37424.13,9323.87 "/>
   <polygon class="fil2" points="37453.62,10567.99 37483.11,10593.87 37519.16,10578.37 37539.2,10612.11 37578.28,10608.5 37586.92,10646.78 37625.2,10655.42 37621.59,10694.5 37655.33,10714.54 37639.83,10750.59 37665.71,10780.08 37639.83,10809.57 37655.33,10845.62 37621.59,10865.66 37625.2,10904.74 37586.92,10913.38 37578.28,10951.66 37539.2,10948.05 37519.16,10981.79 37483.11,10966.29 37453.62,10992.17 37424.13,10966.29 37388.08,10981.79 37368.04,10948.05 37328.96,10951.66 37320.32,10913.38 37282.04,10904.74 37285.65,10865.66 37251.91,10845.62 37267.41,10809.57 37241.53,10780.08 37267.41,10750.59 37251.91,10714.54 37285.65,10694.5 37282.04,10655.42 37320.32,10646.78 37328.96,10608.5 37368.04,10612.11 37388.08,10578.37 37424.13,10593.87 "/>
   <polygon class="fil2" points="37453.62,11837.99 37483.11,11863.87 37519.16,11848.37 37539.2,11882.11 37578.28,11878.5 37586.92,11916.78 37625.2,11925.42 37621.59,11964.5 37655.33,11984.54 37639.83,12020.59 37665.71,12050.08 37639.83,12079.57 37655.33,12115.62 37621.59,12135.66 37625.2,12174.74 37586.92,12183.38 37578.28,12221.66 37539.2,12218.05 37519.16,12251.79 37483.11,12236.29 37453.62,12262.17 37424.13,12236.29 37388.08,12251.79 37368.04,12218.05 37328.96,12221.66 37320.32,12183.38 37282.04,12174.74 37285.65,12135.66 37251.91,12115.62 37267.41,12079.57 37241.53,12050.08 37267.41,12020.59 37251.91,11984.54 37285.65,11964.5 37282.04,11925.42 37320.32,11916.78 37328.96,11878.5 37368.04,11882.11 37388.08,11848.37 37424.13,11863.87 "/>
   <polygon class="fil2" points="37453.62,13107.99 37483.11,13133.87 37519.16,13118.37 37539.2,13152.11 37578.28,13148.5 37586.92,13186.78 37625.2,13195.42 37621.59,13234.5 37655.33,13254.54 37639.83,13290.59 37665.71,13320.08 37639.83,13349.57 37655.33,13385.62 37621.59,13405.66 37625.2,13444.74 37586.92,13453.38 37578.28,13491.66 37539.2,13488.05 37519.16,13521.79 37483.11,13506.29 37453.62,13532.17 37424.13,13506.29 37388.08,13521.79 37368.04,13488.05 37328.96,13491.66 37320.32,13453.38 37282.04,13444.74 37285.65,13405.66 37251.91,13385.62 37267.41,13349.57 37241.53,13320.08 37267.41,13290.59 37251.91,13254.54 37285.65,13234.5 37282.04,13195.42 37320.32,13186.78 37328.96,13148.5 37368.04,13152.11 37388.08,13118.37 37424.13,13133.87 "/>
   <polygon class="fil2" points="37453.62,14377.99 37483.11,14403.87 37519.16,14388.37 37539.2,14422.11 37578.28,14418.5 37586.92,14456.78 37625.2,14465.42 37621.59,14504.5 37655.33,14524.54 37639.83,14560.59 37665.71,14590.08 37639.83,14619.57 37655.33,14655.62 37621.59,14675.66 37625.2,14714.74 37586.92,14723.38 37578.28,14761.66 37539.2,14758.05 37519.16,14791.79 37483.11,14776.29 37453.62,14802.17 37424.13,14776.29 37388.08,14791.79 37368.04,14758.05 37328.96,14761.66 37320.32,14723.38 37282.04,14714.74 37285.65,14675.66 37251.91,14655.62 37267.41,14619.57 37241.53,14590.08 37267.41,14560.59 37251.91,14524.54 37285.65,14504.5 37282.04,14465.42 37320.32,14456.78 37328.96,14418.5 37368.04,14422.11 37388.08,14388.37 37424.13,14403.87 "/>
   <polygon class="fil2" points="37453.62,15647.99 37483.11,15673.87 37519.16,15658.37 37539.2,15692.11 37578.28,15688.5 37586.92,15726.78 37625.2,15735.42 37621.59,15774.5 37655.33,15794.54 37639.83,15830.59 37665.71,15860.08 37639.83,15889.57 37655.33,15925.62 37621.59,15945.66 37625.2,15984.74 37586.92,15993.38 37578.28,16031.66 37539.2,16028.05 37519.16,16061.79 37483.11,16046.29 37453.62,16072.17 37424.13,16046.29 37388.08,16061.79 37368.04,16028.05 37328.96,16031.66 37320.32,15993.38 37282.04,15984.74 37285.65,15945.66 37251.91,15925.62 37267.41,15889.57 37241.53,15860.08 37267.41,15830.59 37251.91,15794.54 37285.65,15774.5 37282.04,15735.42 37320.32,15726.78 37328.96,15688.5 37368.04,15692.11 37388.08,15658.37 37424.13,15673.87 "/>
   <polygon class="fil2" points="37453.62,16917.99 37483.11,16943.87 37519.16,16928.37 37539.2,16962.11 37578.28,16958.5 37586.92,16996.78 37625.2,17005.42 37621.59,17044.5 37655.33,17064.54 37639.83,17100.59 37665.71,17130.08 37639.83,17159.57 37655.33,17195.62 37621.59,17215.66 37625.2,17254.74 37586.92,17263.38 37578.28,17301.66 37539.2,17298.05 37519.16,17331.79 37483.11,17316.29 37453.62,17342.17 37424.13,17316.29 37388.08,17331.79 37368.04,17298.05 37328.96,17301.66 37320.32,17263.38 37282.04,17254.74 37285.65,17215.66 37251.91,17195.62 37267.41,17159.57 37241.53,17130.08 37267.41,17100.59 37251.91,17064.54 37285.65,17044.5 37282.04,17005.42 37320.32,16996.78 37328.96,16958.5 37368.04,16962.11 37388.08,16928.37 37424.13,16943.87 "/>
   <polygon class="fil2" points="37453.62,18187.99 37483.11,18213.87 37519.16,18198.37 37539.2,18232.11 37578.28,18228.5 37586.92,18266.78 37625.2,18275.42 37621.59,18314.5 37655.33,18334.54 37639.83,18370.59 37665.71,18400.08 37639.83,18429.57 37655.33,18465.62 37621.59,18485.66 37625.2,18524.74 37586.92,18533.38 37578.28,18571.66 37539.2,18568.05 37519.16,18601.79 37483.11,18586.29 37453.62,18612.17 37424.13,18586.29 37388.08,18601.79 37368.04,18568.05 37328.96,18571.66 37320.32,18533.38 37282.04,18524.74 37285.65,18485.66 37251.91,18465.62 37267.41,18429.57 37241.53,18400.08 37267.41,18370.59 37251.91,18334.54 37285.65,18314.5 37282.04,18275.42 37320.32,18266.78 37328.96,18228.5 37368.04,18232.11 37388.08,18198.37 37424.13,18213.87 "/>
   <polygon class="fil2" points="37453.62,19457.99 37483.11,19483.87 37519.16,19468.37 37539.2,19502.11 37578.28,19498.5 37586.92,19536.78 37625.2,19545.42 37621.59,19584.5 37655.33,19604.54 37639.83,19640.59 37665.71,19670.08 37639.83,19699.57 37655.33,19735.62 37621.59,19755.66 37625.2,19794.74 37586.92,19803.38 37578.28,19841.66 37539.2,19838.05 37519.16,19871.79 37483.11,19856.29 37453.62,19882.17 37424.13,19856.29 37388.08,19871.79 37368.04,19838.05 37328.96,19841.66 37320.32,19803.38 37282.04,19794.74 37285.65,19755.66 37251.91,19735.62 37267.41,19699.57 37241.53,19670.08 37267.41,19640.59 37251.91,19604.54 37285.65,19584.5 37282.04,19545.42 37320.32,19536.78 37328.96,19498.5 37368.04,19502.11 37388.08,19468.37 37424.13,19483.87 "/>
   <polygon class="fil2" points="37453.62,20727.99 37483.11,20753.87 37519.16,20738.37 37539.2,20772.11 37578.28,20768.5 37586.92,20806.78 37625.2,20815.42 37621.59,20854.5 37655.33,20874.54 37639.83,20910.59 37665.71,20940.08 37639.83,20969.57 37655.33,21005.62 37621.59,21025.66 37625.2,21064.74 37586.92,21073.38 37578.28,21111.66 37539.2,21108.05 37519.16,21141.79 37483.11,21126.29 37453.62,21152.17 37424.13,21126.29 37388.08,21141.79 37368.04,21108.05 37328.96,21111.66 37320.32,21073.38 37282.04,21064.74 37285.65,21025.66 37251.91,21005.62 37267.41,20969.57 37241.53,20940.08 37267.41,20910.59 37251.91,20874.54 37285.65,20854.5 37282.04,20815.42 37320.32,20806.78 37328.96,20768.5 37368.04,20772.11 37388.08,20738.37 37424.13,20753.87 "/>
   <polygon class="fil2" points="37453.62,21997.99 37483.11,22023.87 37519.16,22008.37 37539.2,22042.11 37578.28,22038.5 37586.92,22076.78 37625.2,22085.42 37621.59,22124.5 37655.33,22144.54 37639.83,22180.59 37665.71,22210.08 37639.83,22239.57 37655.33,22275.62 37621.59,22295.66 37625.2,22334.74 37586.92,22343.38 37578.28,22381.66 37539.2,22378.05 37519.16,22411.79 37483.11,22396.29 37453.62,22422.17 37424.13,22396.29 37388.08,22411.79 37368.04,22378.05 37328.96,22381.66 37320.32,22343.38 37282.04,22334.74 37285.65,22295.66 37251.91,22275.62 37267.41,22239.57 37241.53,22210.08 37267.41,22180.59 37251.91,22144.54 37285.65,22124.5 37282.04,22085.42 37320.32,22076.78 37328.96,22038.5 37368.04,22042.11 37388.08,22008.37 37424.13,22023.87 "/>
   <polygon class="fil2" points="37453.62,23267.99 37483.11,23293.87 37519.16,23278.37 37539.2,23312.11 37578.28,23308.5 37586.92,23346.78 37625.2,23355.42 37621.59,23394.5 37655.33,23414.54 37639.83,23450.59 37665.71,23480.08 37639.83,23509.57 37655.33,23545.62 37621.59,23565.66 37625.2,23604.74 37586.92,23613.38 37578.28,23651.66 37539.2,23648.05 37519.16,23681.79 37483.11,23666.29 37453.62,23692.17 37424.13,23666.29 37388.08,23681.79 37368.04,23648.05 37328.96,23651.66 37320.32,23613.38 37282.04,23604.74 37285.65,23565.66 37251.91,23545.62 37267.41,23509.57 37241.53,23480.08 37267.41,23450.59 37251.91,23414.54 37285.65,23394.5 37282.04,23355.42 37320.32,23346.78 37328.96,23308.5 37368.04,23312.11 37388.08,23278.37 37424.13,23293.87 "/>
   <polygon class="fil2" points="37453.62,24537.99 37483.11,24563.87 37519.16,24548.37 37539.2,24582.11 37578.28,24578.5 37586.92,24616.78 37625.2,24625.42 37621.59,24664.5 37655.33,24684.54 37639.83,24720.59 37665.71,24750.08 37639.83,24779.57 37655.33,24815.62 37621.59,24835.66 37625.2,24874.74 37586.92,24883.38 37578.28,24921.66 37539.2,24918.05 37519.16,24951.79 37483.11,24936.29 37453.62,24962.17 37424.13,24936.29 37388.08,24951.79 37368.04,24918.05 37328.96,24921.66 37320.32,24883.38 37282.04,24874.74 37285.65,24835.66 37251.91,24815.62 37267.41,24779.57 37241.53,24750.08 37267.41,24720.59 37251.91,24684.54 37285.65,24664.5 37282.04,24625.42 37320.32,24616.78 37328.96,24578.5 37368.04,24582.11 37388.08,24548.37 37424.13,24563.87 "/>
   <polygon class="fil2" points="37453.62,25807.99 37483.11,25833.87 37519.16,25818.37 37539.2,25852.11 37578.28,25848.5 37586.92,25886.78 37625.2,25895.42 37621.59,25934.5 37655.33,25954.54 37639.83,25990.59 37665.71,26020.08 37639.83,26049.57 37655.33,26085.62 37621.59,26105.66 37625.2,26144.74 37586.92,26153.38 37578.28,26191.66 37539.2,26188.05 37519.16,26221.79 37483.11,26206.29 37453.62,26232.17 37424.13,26206.29 37388.08,26221.79 37368.04,26188.05 37328.96,26191.66 37320.32,26153.38 37282.04,26144.74 37285.65,26105.66 37251.91,26085.62 37267.41,26049.57 37241.53,26020.08 37267.41,25990.59 37251.91,25954.54 37285.65,25934.5 37282.04,25895.42 37320.32,25886.78 37328.96,25848.5 37368.04,25852.11 37388.08,25818.37 37424.13,25833.87 "/>
   <polygon class="fil2" points="37453.62,27077.99 37483.11,27103.87 37519.16,27088.37 37539.2,27122.11 37578.28,27118.5 37586.92,27156.78 37625.2,27165.42 37621.59,27204.5 37655.33,27224.54 37639.83,27260.59 37665.71,27290.08 37639.83,27319.57 37655.33,27355.62 37621.59,27375.66 37625.2,27414.74 37586.92,27423.38 37578.28,27461.66 37539.2,27458.05 37519.16,27491.79 37483.11,27476.29 37453.62,27502.17 37424.13,27476.29 37388.08,27491.79 37368.04,27458.05 37328.96,27461.66 37320.32,27423.38 37282.04,27414.74 37285.65,27375.66 37251.91,27355.62 37267.41,27319.57 37241.53,27290.08 37267.41,27260.59 37251.91,27224.54 37285.65,27204.5 37282.04,27165.42 37320.32,27156.78 37328.96,27118.5 37368.04,27122.11 37388.08,27088.37 37424.13,27103.87 "/>
  </g>
 </g>
 <g id="Green">
  <metadata id="CorelCorpID_3Corel-Layer"/>
  <g>
   <g>
    <path class="fil4" d="M1259.89 25387.78l35559.99 0 0 1066.8c0,111.76 -91.43,203.2 -203.21,203.2l-35153.57 0c-111.78,0 -203.21,-91.44 -203.21,-203.2l0 -1066.8z"/>
    <path id="1" class="fil1 str2" d="M1259.89 25387.78l35559.99 0 0 1066.8c0,111.76 -91.43,203.2 -203.21,203.2l-35153.57 0c-111.78,0 -203.21,-91.44 -203.21,-203.2l0 -1066.8z"/>
   </g>
   <g>
    <polygon class="fil4" points="1259.89,22847.78 36819.88,22847.78 36819.88,24117.78 1259.89,24117.78 "/>
    <polygon id="1" class="fil1 str2" points="1259.89,22847.78 36819.88,22847.78 36819.88,24117.78 1259.89,24117.78 "/>
   </g>
   <g>
    <polygon class="fil4" points="1259.89,20307.78 36819.88,20307.78 36819.88,21577.78 1259.89,21577.78 "/>
    <polygon id="1" class="fil1 str2" points="1259.89,20307.78 36819.88,20307.78 36819.88,21577.78 1259.89,21577.78 "/>
   </g>
   <g>
    <polygon class="fil4" points="1259.89,17767.78 36819.88,17767.78 36819.88,19037.78 1259.89,19037.78 "/>
    <polygon id="1" class="fil1 str2" points="1259.89,17767.78 36819.88,17767.78 36819.88,19037.78 1259.89,19037.78 "/>
   </g>
   <g>
    <polygon class="fil4" points="1259.89,15227.78 36819.88,15227.78 36819.88,16497.78 1259.89,16497.78 "/>
    <polygon id="1" class="fil1 str2" points="1259.89,15227.78 36819.88,15227.78 36819.88,16497.78 1259.89,16497.78 "/>
   </g>
   <g>
    <polygon class="fil4" points="1259.89,12687.78 36819.88,12687.78 36819.88,13957.78 1259.89,13957.78 "/>
    <polygon id="1" class="fil1 str2" points="1259.89,12687.78 36819.88,12687.78 36819.88,13957.78 1259.89,13957.78 "/>
   </g>
   <g>
    <polygon class="fil4" points="1259.89,10147.78 36819.88,10147.78 36819.88,11417.78 1259.89,11417.78 "/>
    <polygon id="1" class="fil1 str2" points="1259.89,10147.78 36819.88,10147.78 36819.88,11417.78 1259.89,11417.78 "/>
   </g>
   <g>
    <polygon class="fil4" points="1259.89,7607.78 36819.88,7607.78 36819.88,8877.78 1259.89,8877.78 "/>
    <polygon id="1" class="fil1 str2" points="1259.89,7607.78 36819.88,7607.78 36819.88,8877.78 1259.89,8877.78 "/>
   </g>
   <g>
    <polygon class="fil4" points="1259.89,5067.78 36819.88,5067.78 36819.88,6337.78 1259.89,6337.78 "/>
    <polygon id="1" class="fil1 str2" points="1259.89,5067.78 36819.88,5067.78 36819.88,6337.78 1259.89,6337.78 "/>
   </g>
   <g>
    <polygon class="fil4" points="1259.89,2527.78 36819.88,2527.78 36819.88,3797.78 1259.89,3797.78 "/>
    <polygon id="1" class="fil1 str2" points="1259.89,2527.78 36819.88,2527.78 36819.88,3797.78 1259.89,3797.78 "/>
   </g>
  </g>
  <rect class="fil1 str2" x="1259.89" y="411.1" width="35560" height="26246.67" rx="310.04" ry="233.31"/>
 </g>
</svg>
